<?xml version="1.0" encoding="UTF-8"?>
<!DOCTYPE svg PUBLIC "-//W3C//DTD SVG 1.1//EN" "http://www.w3.org/Graphics/SVG/1.1/DTD/svg11.dtd">
<!-- Creator: CorelDRAW X7 -->
<svg xmlns="http://www.w3.org/2000/svg" xml:space="preserve" width="10in" height="10in" version="1.1" style="shape-rendering:geometricPrecision; text-rendering:geometricPrecision; image-rendering:optimizeQuality; fill-rule:evenodd; clip-rule:evenodd"
viewBox="0 0 1000000 1000000"
 xmlns:xlink="http://www.w3.org/1999/xlink">
 <defs>
  <style type="text/css">
   <![CDATA[
    .str0 {stroke:#333333;stroke-width:12499.6}
    .fil1 {fill:none}
    .fil2 {fill:#333333}
    .fil0 {fill:#9999FF}
   ]]>
  </style>
 </defs>
 <g id="Layer_x0020_1">
  <metadata id="CorelCorpID_0Corel-Layer"/>
  <rect class="fil0" x="120050" y="-16089" width="745049" height="1027228"/>
  <path class="fil1 str0" d="M409961 582154l0 66967 62728 -66967 109559 0c25033,0 45329,-20267 45329,-45267l0 -124772c0,-25011 -20294,-45267 -45329,-45267l-204618 0c-25033,0 -45328,20267 -45328,45267l0 124772c0,25011 20294,45267 45328,45267l32331 0z"/>
  <path class="fil2" d="M393009 491916l97738 0c4376,0 7925,3548 7925,7924l-1 1c0,4375 -3548,7924 -7924,7924l-97738 0c-4376,0 -7925,-3549 -7925,-7924l0 0c0,-4376 3549,-7925 7925,-7925z"/>
  <path class="fil2" d="M393009 434674l175541 0c4337,-13 8040,4366 7925,7925l0 0c0,4376 -3548,7925 -7924,7925l-175542 0c-4376,0 -7925,-3549 -7925,-7925l0 0c0,-4376 3551,-7924 7925,-7924z"/>
 </g>
</svg>
