<?xml version="1.0" encoding="UTF-8"?>
<!DOCTYPE svg PUBLIC "-//W3C//DTD SVG 1.1//EN" "http://www.w3.org/Graphics/SVG/1.1/DTD/svg11.dtd">
<!-- Creator: CorelDRAW X7 -->
<svg xmlns="http://www.w3.org/2000/svg" xml:space="preserve" width="10in" height="10in" version="1.1" style="shape-rendering:geometricPrecision; text-rendering:geometricPrecision; image-rendering:optimizeQuality; fill-rule:evenodd; clip-rule:evenodd"
viewBox="0 0 1000000 1000000"
 xmlns:xlink="http://www.w3.org/1999/xlink">
 <defs>
  <style type="text/css">
   <![CDATA[
    .fil0 {fill:#333333}
   ]]>
  </style>
 </defs>
 <g id="Layer_x0020_2">
  <metadata id="CorelCorpID_0Corel-Layer"/>
  <path class="fil0" d="M354189 409449c54359,0 98425,44066 98425,98425 0,54359 -44066,98425 -98425,98425 -54359,0 -98425,-44066 -98425,-98425 0,-54359 44066,-98425 98425,-98425zm16968 83851c27179,0 49212,22033 49212,49213 0,13612 -5527,25934 -14460,34843 21178,-15790 34894,-41034 34894,-69482 0,-47836 -38778,-86614 -86614,-86614 -47836,0 -86614,38778 -86614,86614 0,47836 38778,86614 86614,86614 8053,0 15848,-1103 23246,-3160 -2056,262 -4151,397 -6278,397 -27179,0 -49213,-22033 -49213,-49212 0,-27180 22034,-49213 49213,-49213z"/>
  <path class="fil0" d="M719062 577471c-38438,38438 -100757,38438 -139195,0 -38437,-38437 -38437,-100757 0,-139194 38438,-38438 100757,-38438 139195,0 38437,38437 38437,100757 0,139194zm-71290 -47293c-19218,19218 -50379,19218 -69597,0 -9626,-9626 -14430,-22247 -14414,-34864 -3809,26141 4342,53690 24458,73805 33825,33825 88666,33825 122491,0 33825,-33825 33825,-88665 0,-122490 -33825,-33825 -88666,-33825 -122491,0 -5694,5694 -10426,11986 -14203,18671 1269,-1639 2655,-3216 4159,-4720 19218,-19218 50379,-19218 69597,0 19219,19219 19219,50379 0,69598z"/>
 </g>
</svg>
