<?xml version="1.0" encoding="UTF-8"?>
<!DOCTYPE svg PUBLIC "-//W3C//DTD SVG 1.1//EN" "http://www.w3.org/Graphics/SVG/1.1/DTD/svg11.dtd">
<!-- Creator: CorelDRAW X7 -->
<svg xmlns="http://www.w3.org/2000/svg" xml:space="preserve" width="10in" height="10in" version="1.1" style="shape-rendering:geometricPrecision; text-rendering:geometricPrecision; image-rendering:optimizeQuality; fill-rule:evenodd; clip-rule:evenodd"
viewBox="0 0 1000000 1000000"
 xmlns:xlink="http://www.w3.org/1999/xlink">
 <defs>
  <style type="text/css">
   <![CDATA[
    .fil0 {fill:#778937}
    .fil1 {fill:#E6E6E6}
   ]]>
  </style>
 </defs>
 <g id="Layer_x0020_12">
  <metadata id="CorelCorpID_0Corel-Layer"/>
  <path class="fil0" d="M349196 531436l0 8c-8,568 -22,1134 -22,1704l0 46406 0 48440c0,56844 -791,103381 56270,141642 534,358 1070,711 1608,1061 297,192 594,383 892,573 35632,22700 83369,23182 123508,18982 963,-101 1929,-211 2891,-335 1132,-146 2260,-313 3388,-487 59596,-9350 106013,-60984 106700,-123320l0 -22 1 -21 0 -23 0 -21 1 -22 0 -22 0 -22 0 -22 1 -22 0 -21 1 -22 0 -22c6,-379 14,-757 14,-1137l0 -31557 0 -61312 0 -34541 0 -4153c0,-22288 -5861,-43270 -16106,-61494l0 0 -7 -12c-16913,-30077 -44037,-50075 -74876,-60658 1776,-13365 5782,-31697 16832,-40095 13564,-10311 35727,-3298 49664,2381 3929,1602 8212,680 11133,-2396 2922,-3076 3623,-7401 1822,-11242 -7195,-15351 -23692,-29785 -39203,-36110 -21846,-8907 -43093,-4436 -61589,7028 530,-6816 2222,-13484 5625,-19634 10754,-19429 35864,-28269 56201,-32901 4159,-947 7150,-4192 7755,-8415 604,-4222 -1355,-8177 -5081,-10253 -26188,-14595 -56743,-8670 -81518,5939 -14258,8408 -28664,21067 -38331,35766 -10509,-14257 -24029,-27056 -40947,-31613 -24858,-6695 -47245,6756 -64491,23561 -3283,3200 -4015,8012 -1832,12043 2184,4032 6614,6048 11088,5046 28951,-6485 48906,9313 57925,33050 -16687,-6096 -34839,-8665 -50872,103 -16260,8891 -26190,27315 -34296,43267 -2099,4130 -1196,8983 2247,12082 3443,3099 8365,3487 12251,967 9221,-5980 28039,-18542 39691,-16535 11403,1964 22292,19070 28609,30060 -48362,18227 -86136,58526 -86947,118353zm238519 118288l-6590 3712c-1272,716 -2097,1812 -2434,3231 -2217,9316 -7974,17287 -16117,22321 -8163,5046 -17892,6627 -27233,4424 -12136,-2862 -21855,-11729 -25865,-23498 -417,-1222 -1177,-2137 -2302,-2771l-13171 -7419 12194 -6868c1258,-709 2077,-1787 2424,-3189 2270,-9190 7998,-17043 16049,-22018 8161,-5042 17886,-6621 27223,-4419 14290,3371 25085,15057 27353,29520 247,1579 1118,2834 2510,3618l5959 3356zm-83025 -46764l-7470 4207c-1372,773 -2236,2002 -2500,3553 -130,764 -281,1524 -459,2278 -2203,9343 -7966,17341 -16130,22389 -8163,5047 -17894,6629 -27237,4426 -13614,-3211 -24099,-13975 -27001,-27615 -312,-1469 -1152,-2612 -2461,-3349l-10455 -5889 11573 -6518c1150,-648 1921,-1592 2327,-2848 2633,-8148 8061,-15042 15343,-19542 8161,-5044 17887,-6624 27227,-4421 12883,3038 23005,12843 26503,25565 371,1348 1173,2376 2391,3061l8349 4703zm83025 -46764l-8575 4830c-1171,659 -1953,1629 -2348,2913 -2572,8354 -8066,15434 -15499,20026 -8161,5042 -17884,6620 -27222,4418 -11821,-2788 -21364,-11274 -25560,-22637 -431,-1170 -1172,-2039 -2258,-2651l-12250 -6899 10380 -5847c1354,-763 2211,-1966 2489,-3495 113,-616 241,-1229 385,-1838 2203,-9343 7966,-17341 16130,-22389 8163,-5047 17894,-6629 27237,-4426 14556,3433 25464,15490 27461,30270 220,1620 1102,2921 2526,3723l7104 4002zm-83025 -46765l-9241 5205c-1292,728 -2125,1849 -2449,3296l-8 37c-2204,9343 -7967,17342 -16131,22389 -8163,5048 -17894,6629 -27236,4425 -13318,-3141 -23677,-13515 -26824,-26826 -336,-1423 -1162,-2521 -2436,-3238l-9388 -5288 9547 -5377c1252,-705 2068,-1774 2419,-3168 2296,-9127 8007,-16920 16012,-21866 8160,-5042 17885,-6620 27222,-4418 13172,3107 23442,13285 26716,26373 349,1396 1166,2468 2420,3175l9377 5281zm75518 241141c-16666,12095 -36941,19474 -58818,20129 -5039,-4331 -8864,-10042 -10921,-16602 -399,-1274 -1177,-2234 -2340,-2889l-14126 -7957 14203 -8000c1157,-651 1931,-1604 2333,-2870 2612,-8214 8059,-15167 15388,-19698 8163,-5048 17893,-6629 27236,-4426 14021,3307 24696,14622 27225,28761 275,1535 1134,2745 2493,3510l4834 2723 -4808 2708c-1366,769 -2227,1989 -2496,3533 -63,361 -130,720 -203,1078zm-57449 -323361c18595,797 35994,6450 50955,15716 1643,3491 2742,7280 3195,11255 189,1662 1082,3008 2539,3829l8267 4656 -10800 6083c-1063,598 -1791,1440 -2232,2577 -2834,7322 -7983,13484 -14661,17609 -8159,5041 -17883,6620 -27220,4418 -11498,-2712 -20854,-10814 -25223,-21759 -445,-1115 -1166,-1938 -2212,-2527l-11364 -6401 8745 -4926c1445,-814 2334,-2143 2534,-3789 163,-1334 397,-2658 705,-3965 2204,-9344 7968,-17343 16132,-22390 212,-131 425,-260 640,-386zm101492 116320c-2776,2 -5568,-318 -8325,-969 -12455,-2938 -22348,-12200 -26153,-24377 -398,-1276 -1177,-2238 -2342,-2894l-10403 -5860 9271 -5222c1342,-755 2194,-1942 2482,-3455 100,-521 208,-1042 330,-1559 2204,-9343 7967,-17342 16130,-22389 640,-396 1289,-770 1948,-1123 10780,16589 17062,36334 17062,57465l0 10383zm0 95008c-2356,-82 -4718,-397 -7056,-948 -12753,-3008 -22806,-12647 -26400,-25205 -380,-1326 -1175,-2333 -2377,-3010l-11390 -6416 11105 -6255c1246,-702 2060,-1764 2415,-3149 2318,-9069 8014,-16808 15975,-21727 5411,-3344 11510,-5164 17728,-5370l0 72080zm-19652 87448c-6166,-4798 -10714,-11557 -12757,-19386 -359,-1375 -1170,-2427 -2408,-3125l-12406 -6987 13147 -7406c1144,-644 1912,-1579 2320,-2827 2651,-8087 8061,-14926 15298,-19399 5042,-3115 10681,-4908 16458,-5304l0 3158c0,22772 -7291,43938 -19652,61276zm-163313 39086c8177,-5604 18555,-7777 28700,-5384 7327,1728 13772,5646 18611,11064l-13183 0c-11923,0 -23405,-2001 -34128,-5680zm-61897 -55552c2494,58 4997,376 7473,960 13183,3110 23460,13303 26723,26406 1135,3926 1152,9365 815,12840 -56,475 -121,949 -195,1421 -14895,-10604 -26966,-24949 -34816,-41627zm-10017 -94156c5285,-1195 10818,-1187 16221,87 13451,3172 23877,13723 26911,27201 325,1445 1158,2564 2448,3290l6713 3781 -6353 3578c-1361,767 -2221,1979 -2493,3517 -119,670 -256,1338 -412,2000 -2203,9343 -7966,17341 -16129,22388 -7430,4595 -16158,6317 -24710,4929 -1438,-6926 -2196,-14092 -2196,-21425l0 -49346zm831 -95438c4639,-762 9428,-611 14120,496 13745,3242 24293,14181 27078,27983 300,1490 1147,2655 2471,3401l7793 4389 -8150 4589c-1265,713 -2088,1800 -2430,3212 -2240,9260 -7984,17179 -16087,22186 -7696,4756 -16783,6432 -25626,4761l0 -57796c0,-4475 284,-8887 831,-13221zm39183 -69569c362,1237 660,2501 891,3789 275,1535 1134,2744 2493,3510l8895 5010 -10145 5714c-1165,656 -1943,1617 -2342,2894 -2590,8292 -8063,15315 -15450,19880 -5427,3354 -11547,5175 -17785,5372 6783,-18257 18473,-34189 33443,-46169zm79790 -23252c-7882,13660 -23961,20704 -39498,17040 -6050,-1427 -11522,-4348 -15990,-8417 12826,-5542 26936,-8623 41726,-8623l13762 0z"/>
  <path class="fil1" d="M457833 659798l0 0c3055,0 5554,2499 5554,5554l0 21568c0,3055 -2499,5554 -5554,5554l0 0c-3055,0 -5555,-2499 -5555,-5554l0 -21568c0,-3055 2500,-5554 5555,-5554zm20102 12854c7833,6173 12393,15540 12393,25530 0,17945 -14550,32496 -32495,32496 -17945,0 -32495,-14551 -32495,-32496 0,-9990 4560,-19356 12393,-25530 2403,-1894 5907,-1479 7801,924 1894,2402 1479,5907 -925,7800 -5162,4069 -8160,10221 -8160,16806 0,11813 9572,21387 21386,21387 11814,0 21386,-9573 21386,-21387 0,-6585 -2998,-12737 -8161,-16806 -2402,-1893 -2818,-5397 -924,-7800 1894,-2403 5398,-2819 7801,-924z"/>
 </g>
</svg>
