<?xml version="1.0" encoding="UTF-8"?>
<!DOCTYPE svg PUBLIC "-//W3C//DTD SVG 1.1//EN" "http://www.w3.org/Graphics/SVG/1.1/DTD/svg11.dtd">
<!-- Creator: CorelDRAW X7 -->
<svg xmlns="http://www.w3.org/2000/svg" xml:space="preserve" width="10in" height="10in" version="1.1" style="shape-rendering:geometricPrecision; text-rendering:geometricPrecision; image-rendering:optimizeQuality; fill-rule:evenodd; clip-rule:evenodd"
viewBox="0 0 1000000 1000000"
 xmlns:xlink="http://www.w3.org/1999/xlink">
 <defs>
  <style type="text/css">
   <![CDATA[
    .fil0 {fill:#CEC400}
    .fil1 {fill:#CEC400}
   ]]>
  </style>
 </defs>
 <g id="Layer_x0020_5">
  <metadata id="CorelCorpID_0Corel-Layer"/>
  <path class="fil0" d="M492941 436931c-1854,6713 -8006,11645 -15308,11645 -7302,0 -13454,-4932 -15308,-11645l-54234 0c58,554 88,1112 88,1673 0,8767 -7111,15878 -15879,15878 -8768,0 -15879,-7111 -15879,-15878 0,-244 5,-487 16,-729 -6633,2311 -11415,8613 -11415,16029l0 78707c8603,191 15521,7227 15521,15875 0,8649 -6918,15685 -15521,15875l0 80372c8644,143 15611,7198 15611,15877 0,8331 -6420,15166 -14581,15827 4653,22367 24486,38833 47797,38833l71351 0c1854,-6713 8006,-11644 15308,-11644 7301,0 13454,4931 15308,11644l4359 0c21510,0 40360,-14087 46634,-34347 -5608,-2483 -9451,-8103 -9451,-14525 0,-7302 4932,-13454 11645,-15308l0 -20206c0,-2778 1207,-5169 3443,-6817 145,-107 292,-208 440,-305l0 -34114c-2459,-3910 -3883,-8536 -3883,-13500l0 -59548c0,-2976 1549,-5603 3883,-7113l0 -26109c-2334,-1511 -3883,-4137 -3883,-7114l0 -22360c0,-9366 -7656,-16973 -17011,-16973l-59051 0zm84530 39333l54190 0c11137,0 20168,9031 20168,20168l0 79716c0,31642 -25716,57300 -57347,57300 -5787,0 -11514,-862 -17011,-2564l0 23870c0,2331 -1902,4234 -4234,4234 -4094,0 -7410,3316 -7410,7410 0,3774 2846,6959 6598,7366 1241,134 2258,727 2985,1742 728,1014 964,2167 693,3386 -5811,26162 -29081,44847 -55928,44847l-8023 0c-2332,0 -4234,-1902 -4234,-4235 0,-4093 -3316,-7410 -7410,-7410 -4094,0 -7410,3317 -7410,7410 0,2333 -1902,4235 -4235,4235l-75014 0c-29451,0 -54143,-22385 -57018,-51674 -144,-1472 420,-2805 1578,-3726 1157,-922 2582,-1172 3984,-702 762,256 1558,383 2361,383 4094,0 7411,-3316 7411,-7410 0,-4094 -3317,-7410 -7411,-7410 -862,0 -1714,147 -2524,441 -1339,485 -2708,303 -3874,-515 -1166,-818 -1803,-2043 -1803,-3467l0 -90190c0,-1418 631,-2638 1789,-3457 1158,-819 2518,-1008 3855,-536 794,280 1626,420 2468,420 4094,0 7410,-3316 7410,-7410 0,-4093 -3316,-7410 -7410,-7410 -842,0 -1674,141 -2468,421 -1337,472 -2697,283 -3855,-536 -1158,-819 -1789,-2039 -1789,-3457l0 -83600c0,-14050 11440,-25441 25479,-25441l231 0c1562,0 2902,778 3677,2134 774,1356 764,2906 -30,4251 -673,1143 -1020,2429 -1020,3756 0,4093 3316,7409 7410,7409 4094,0 7410,-3316 7410,-7409 0,-1327 -347,-2613 -1021,-3756 -793,-1345 -804,-2895 -30,-4251 775,-1356 2116,-2134 3678,-2134l63652 0c2331,0 4234,1902 4234,4234 0,4094 3316,7410 7410,7410 4094,0 7410,-3316 7410,-7410 0,-2332 1902,-4234 4235,-4234l62714 0c14031,0 25479,11402 25479,25441l0 22360zm0 40336l0 59548c0,9392 7630,16964 17011,16964 9356,0 17011,-7597 17011,-16964l0 -59548 -34022 0zm-50073 147429c-4094,0 -7410,3316 -7410,7410 0,4094 3316,7410 7410,7410 4094,0 7410,-3316 7410,-7410 0,-4094 -3316,-7410 -7410,-7410zm-16618 -47226c-4094,0 -7410,3317 -7410,7410 0,4094 3316,7411 7410,7411 4094,0 7410,-3317 7410,-7411 0,-4093 -3316,-7410 -7410,-7410zm33796 -62567c-4093,0 -7410,3316 -7410,7410 0,4094 3317,7410 7410,7410 4094,0 7411,-3316 7411,-7410 0,-4094 -3317,-7410 -7411,-7410zm-43633 -14936c-4094,0 -7410,3316 -7410,7410 0,4094 3316,7410 7410,7410 4094,0 7410,-3316 7410,-7410 0,-4094 -3316,-7410 -7410,-7410zm26740 -78884c-4094,0 -7410,3316 -7410,7410 0,4094 3316,7410 7410,7410 4094,0 7410,-3316 7410,-7410 0,-4094 -3316,-7410 -7410,-7410zm14347 43780c-4094,0 -7410,3316 -7410,7410 0,4094 3316,7410 7410,7410 4094,0 7410,-3316 7410,-7410 0,-4094 -3316,-7410 -7410,-7410zm-91210 17176c-4094,0 -7411,3316 -7411,7410 0,4094 3317,7410 7411,7410 4094,0 7410,-3316 7410,-7410 0,-4094 -3316,-7410 -7410,-7410zm27178 56673c-4093,0 -7410,3316 -7410,7410 0,4094 3317,7410 7410,7410 4095,0 7411,-3316 7411,-7410 0,-4094 -3316,-7410 -7411,-7410zm-45459 30527c-4093,0 -7409,3317 -7409,7411 0,4094 3316,7410 7409,7410 4094,0 7411,-3316 7411,-7410 0,-4094 -3317,-7411 -7411,-7411zm22532 47915c-4093,0 -7410,3316 -7410,7410 0,4094 3317,7410 7410,7410 4094,0 7410,-3316 7410,-7410 0,-4094 -3316,-7410 -7410,-7410zm-45333 17204c-4094,0 -7410,3316 -7410,7410 0,4094 3316,7410 7410,7410 4094,0 7410,-3316 7410,-7410 0,-4094 -3316,-7410 -7410,-7410zm-10312 -92171c-4093,0 -7410,3317 -7410,7411 0,4093 3317,7410 7410,7410 4094,0 7411,-3317 7411,-7410 0,-4094 -3317,-7411 -7411,-7411zm66957 -102280c-4094,0 -7410,3316 -7410,7410 0,4094 3316,7410 7410,7410 4094,0 7410,-3316 7410,-7410 0,-4094 -3316,-7410 -7410,-7410zm-73996 7440c-4094,0 -7411,3316 -7411,7409 0,4094 3317,7411 7411,7411 4093,0 7410,-3317 7410,-7411 0,-4093 -3317,-7409 -7410,-7409zm38988 -28664c-4094,0 -7410,3316 -7410,7410 0,4094 3316,7410 7410,7410 4094,0 7410,-3316 7410,-7410 0,-4094 -3316,-7410 -7410,-7410zm96023 197544c8768,0 15879,7111 15879,15879 0,8768 -7111,15879 -15879,15879 -8768,0 -15879,-7111 -15879,-15879 0,-8768 7111,-15879 15879,-15879zm-16618 -47225c8768,0 15879,7110 15879,15878 0,8768 -7111,15879 -15879,15879 -8769,0 -15879,-7111 -15879,-15879 0,-8768 7110,-15878 15879,-15878zm33796 -62568c8768,0 15879,7111 15879,15879 0,8768 -7111,15879 -15879,15879 -8768,0 -15878,-7111 -15878,-15879 0,-8768 7110,-15879 15878,-15879zm-43633 -14936c8768,0 15879,7111 15879,15879 0,8768 -7111,15879 -15879,15879 -8768,0 -15879,-7111 -15879,-15879 0,-8768 7111,-15879 15879,-15879zm26740 -78884c8768,0 15879,7111 15879,15879 0,8768 -7111,15879 -15879,15879 -8768,0 -15879,-7111 -15879,-15879 0,-8768 7111,-15879 15879,-15879zm14347 43780c8768,0 15879,7111 15879,15879 0,8768 -7111,15879 -15879,15879 -8769,0 -15879,-7111 -15879,-15879 0,-8768 7110,-15879 15879,-15879zm-91210 17176c8768,0 15878,7110 15878,15879 0,8768 -7110,15879 -15878,15879 -8768,0 -15879,-7111 -15879,-15879 0,-8769 7111,-15879 15879,-15879zm27178 56673c8769,0 15879,7111 15879,15879 0,8768 -7110,15879 -15879,15879 -8768,0 -15878,-7111 -15878,-15879 0,-8768 7110,-15879 15878,-15879zm-45459 30528c8769,0 15880,7111 15880,15879 0,8768 -7111,15878 -15880,15878 -8768,0 -15878,-7110 -15878,-15878 0,-8768 7110,-15879 15878,-15879zm22532 47914c8769,0 15879,7111 15879,15879 0,8768 -7110,15879 -15879,15879 -8768,0 -15878,-7111 -15878,-15879 0,-8768 7110,-15879 15878,-15879zm-45333 17204c8769,0 15879,7111 15879,15879 0,8768 -7110,15879 -15879,15879 -8768,0 -15879,-7111 -15879,-15879 0,-8768 7111,-15879 15879,-15879zm-10312 -92170c8768,0 15879,7110 15879,15879 0,8768 -7111,15878 -15879,15878 -8768,0 -15878,-7110 -15878,-15878 0,-8769 7110,-15879 15878,-15879zm66957 -102281c8768,0 15879,7111 15879,15879 0,8768 -7111,15879 -15879,15879 -8768,0 -15879,-7111 -15879,-15879 0,-8768 7111,-15879 15879,-15879zm-73996 7440c8768,0 15878,7110 15878,15878 0,8769 -7110,15880 -15878,15880 -8768,0 -15879,-7111 -15879,-15880 0,-8768 7111,-15878 15879,-15878zm38988 -28664c8768,0 15879,7111 15879,15879 0,8768 -7111,15879 -15879,15879 -8768,0 -15879,-7111 -15879,-15879 0,-8768 7111,-15879 15879,-15879zm-17692 93314c-4094,0 -7410,3316 -7410,7410 0,4094 3316,7410 7410,7410 4094,0 7410,-3316 7410,-7410 0,-4094 -3316,-7410 -7410,-7410zm0 -8469c8768,0 15879,7111 15879,15879 0,8768 -7111,15879 -15879,15879 -8768,0 -15879,-7111 -15879,-15879 0,-8768 7111,-15879 15879,-15879zm135188 62992c-4094,0 -7410,3316 -7410,7410 0,4094 3316,7410 7410,7410 4094,0 7410,-3316 7410,-7410 0,-4094 -3316,-7410 -7410,-7410zm0 -8469c8768,0 15879,7111 15879,15879 0,8769 -7111,15879 -15879,15879 -8769,0 -15879,-7110 -15879,-15879 0,-8768 7110,-15879 15879,-15879z"/>
  <path class="fil1" d="M410684 206371c19147,21635 32917,52656 32820,76609 -98,23953 -12406,20593 -15223,38404 -2817,17811 -3311,19611 6855,45765 -19173,-10402 -29705,-37983 -26928,-52902 2777,-14920 18375,-26302 19415,-37560 1040,-11258 -433,-35606 -16939,-70316zm69424 13404c19147,21634 32917,52655 32820,76608 -98,23953 -12406,20593 -15223,38404 -2817,17811 -3311,19611 6855,45765 -19173,-10402 -29704,-37982 -26928,-52902 2777,-14919 18375,-26302 19415,-37560 1041,-11257 -433,-35606 -16939,-70315z"/>
 </g>
</svg>
