<?xml version="1.0" encoding="UTF-8"?>
<!DOCTYPE svg PUBLIC "-//W3C//DTD SVG 1.1//EN" "http://www.w3.org/Graphics/SVG/1.1/DTD/svg11.dtd">
<!-- Creator: CorelDRAW X7 -->
<svg xmlns="http://www.w3.org/2000/svg" xml:space="preserve" width="10in" height="10in" version="1.1" style="shape-rendering:geometricPrecision; text-rendering:geometricPrecision; image-rendering:optimizeQuality; fill-rule:evenodd; clip-rule:evenodd"
viewBox="0 0 1000000 1000000"
 xmlns:xlink="http://www.w3.org/1999/xlink">
 <defs>
  <style type="text/css">
   <![CDATA[
    .str0 {stroke:black;stroke-width:694.488}
    .str1 {stroke:black;stroke-width:694.488}
    .fil0 {fill:none}
    .fil1 {fill:#666666}
   ]]>
  </style>
 </defs>
 <g id="Layer_x0020_1" visibility="hidden">
  <metadata id="CorelCorpID_0Corel-Layer"/>
  <path class="fil0 str0" d="M500000 7874c271794,0 492126,220332 492126,492126 0,271794 -220332,492126 -492126,492126 -271794,0 -492126,-220332 -492126,-492126 0,-271794 220332,-492126 492126,-492126z"/>
  <polygon class="fil0 str0" points="183854,208854 500000,100521 500000,500000 183854,500000 "/>
  <line class="fil0 str0" x1="183854" y1="500000" x2="992126" y2= "500000" />
  <line class="fil0 str0" x1="-176058" y1="115528" x2="122933" y2= "12596" />
 </g>
 <g id="Layer_x0020_2" visibility="hidden">
  <metadata id="CorelCorpID_1Corel-Layer"/>
  <line class="fil0 str0" x1="183854" y1="492126" x2="987698" y2= "407639" />
  <line class="fil0 str0" x1="183854" y1="484253" x2="979846" y2= "343898" />
  <line class="fil0 str0" x1="183854" y1="476378" x2="974463" y2= "308329" />
  <line class="fil0 str0" x1="183854" y1="470473" x2="968117" y2= "274935" />
  <line class="fil0 str0" x1="183854" y1="464569" x2="964585" y2= "255372" />
  <line class="fil0 str0" x1="183854" y1="459649" x2="962730" y2= "243648" />
  <line class="fil0 str0" x1="183854" y1="456501" x2="961588" y2= "236425" />
  <line class="fil0 str0" x1="183854" y1="454139" x2="960815" y2= "231349" />
 </g>
 <g id="Layer_x0020_3" visibility="hidden">
  <metadata id="CorelCorpID_2Corel-Layer"/>
  <polygon class="fil1" points="183854,492126 183854,484253 500000,428508 500000,458898 "/>
  <polygon class="fil1" points="183854,476378 183854,470473 500000,391649 500000,409180 "/>
  <polygon class="fil1" points="183854,464569 183854,459649 500000,371975 500000,379858 "/>
  <polygon class="fil1" points="183854,456501 183854,454139 500000,363486 500002,367041 "/>
  <polygon class="fil1" points="183854,452958 183854,208854 500000,100521 500000,361109 "/>
 </g>
 <g id="Layer_x0020_4" visibility="hidden">
  <metadata id="CorelCorpID_3Corel-Layer"/>
  <path class="fil1" d="M303150 500000l0 -15720 631174 -111292 0 60673 -631174 66339zm0 -31441l0 -11789 631174 -157369 0 34999 -631174 134159zm0 -23578l0 -9820 631174 -175040 0 15739 -631174 169121zm0 -16105l0 -4717 631174 -180985 4 7097 -631178 178605zm0 -7074l0 -487346 631174 -216284 0 520256 -631174 183374z"/>
  <rect class="fil0 str0" x="303150" y="-29745" width="196850" height="897917"/>
 </g>
 <g id="Layer_x0020_6" visibility="hidden">
  <metadata id="CorelCorpID_4Corel-Layer"/>
  <path class="fil0 str1" d="M500000 197486c41193,0 222035,5050 222035,70272 0,8904 -3607,16934 -9365,23599l-14895 17242 -14897 -17241c-9159,-10602 -45713,-19358 -58927,-22056 -40031,-8173 -83157,-10987 -123951,-10987 -40794,0 -83920,2814 -123951,10987 -13214,2698 -49768,11454 -58927,22056l-14897 17241 -14895 -17242c-5758,-6665 -9365,-14695 -9365,-23599 0,-65222 180842,-70272 222035,-70272z"/>
  <path class="fil0 str0" d="M500000 217171c111755,0 202350,22648 202350,50587 0,3683 -1588,7271 -4576,10730 -19686,-22784 -100748,-39858 -197774,-39858 -97026,0 -178088,17074 -197774,39858 -2988,-3459 -4576,-7047 -4576,-10730 0,-27939 90595,-50587 202350,-50587z"/>
 </g>
 <g id="Layer_x0020_5">
  <metadata id="CorelCorpID_5Corel-Layer"/>
  <path class="fil1" d="M500000 7874c271793,0 492126,220333 492126,492126 0,271793 -220333,492126 -492126,492126 -271793,0 -492126,-220333 -492126,-492126 0,-271793 220333,-492126 492126,-492126zm0 288031c0,0 0,0 0,0l-186780 54265c-2457,713 -4878,271 -6924,-1265 -2046,-1536 -3146,-3738 -3146,-6297l0 -171495c0,-7431 -3807,-13806 -10349,-17330 -6238,-3361 -13369,-3228 -19444,437 -116696,76637 -186743,206123 -186743,345780 0,139657 70047,269143 186743,345780 6075,3665 13206,3798 19444,437 6542,-3524 10349,-9899 10349,-17330l0 -171496c0,-2559 1100,-4760 3146,-6297 2046,-1536 4467,-1978 6924,-1264l186780 54264c0,0 0,0 0,0 0,0 0,0 0,0l186780 -54264c2457,-714 4878,-272 6924,1264 2046,1537 3146,3738 3146,6297l0 171496c0,7431 3807,13806 10349,17330 6238,3361 13369,3228 19444,-437 116696,-76637 186743,-206123 186743,-345780 0,-139657 -70047,-269143 -186743,-345780 -6075,-3665 -13206,-3798 -19444,-437 -6542,3524 -10349,9899 -10349,17330l0 171495c0,2559 -1100,4761 -3146,6297 -2046,1536 -4467,1978 -6924,1265l-186780 -54265c0,0 0,0 0,0zm0 93114l-187339 39819c-2404,511 -4683,-36 -6592,-1582 -1910,-1547 -2919,-3662 -2919,-6120l0 -5405c0,-3662 2415,-6755 5969,-7640l188976 -47117c1309,-327 2501,-327 3810,0l188976 47117c3554,885 5969,3978 5969,7640l0 5405c0,2458 -1009,4573 -2919,6120 -1909,1546 -4188,2093 -6592,1582l-187339 -39819zm0 221962l187339 -39820c2404,-511 4683,36 6592,1583 1910,1546 2919,3662 2919,6119l0 5406c0,3662 -2415,6754 -5969,7640l-188976 47117c-1309,326 -2501,326 -3810,0l-188976 -47117c-3554,-886 -5969,-3978 -5969,-7640l0 -5406c0,-2457 1009,-4573 2919,-6119 1909,-1547 4188,-2094 6592,-1583l187339 39820zm2 -78826l188151 -19775c2301,-243 4373,431 6092,1979 1719,1547 2605,3538 2605,5851l0 15196c0,3855 -2710,7085 -6506,7754l-188977 33321c-949,168 -1785,168 -2734,0l-188977 -33321c-3796,-669 -6506,-3899 -6506,-7754l0 -15196c0,-2313 886,-4304 2605,-5851 1719,-1548 3791,-2222 6092,-1979l188155 19775zm-4 -64311l-188151 19776c-2301,242 -4373,-432 -6092,-1979 -1719,-1548 -2605,-3539 -2605,-5852l0 -15196c0,-3855 2710,-7085 6506,-7754l188977 -33321c949,-168 1785,-168 2734,0l188977 33321c3796,669 6506,3899 6506,7754l0 15196c0,2313 -886,4304 -2605,5852 -1719,1547 -3791,2221 -6092,1979l-188155 -19776zm4 223412l193092 -54639c919,-261 1823,-91 2585,486 762,577 1171,1399 1171,2355l0 1314c0,1337 -853,2469 -2139,2838l-193897 55599c-556,160 -1072,160 -1628,0l-193897 -55599c-1286,-369 -2139,-1501 -2139,-2838l0 -1314c0,-956 409,-1778 1171,-2355 762,-577 1666,-747 2585,-486l193096 54639zm0 -28586l193131 -51749c917,-246 1810,-68 2562,509 753,578 1155,1394 1155,2343l0 9555c0,1346 -866,2486 -2163,2846l-193898 53772c-540,149 -1038,149 -1578,0l-193898 -53772c-1297,-360 -2163,-1500 -2163,-2846l0 -9555c0,-949 402,-1765 1155,-2343 752,-577 1645,-755 2562,-509l193135 51749zm-4 -325340l-193131 51748c-917,246 -1810,68 -2562,-509 -753,-578 -1155,-1394 -1155,-2343l0 -9555c0,-1346 866,-2486 2163,-2845l193898 -53772c540,-150 1038,-150 1578,0l193898 53772c1297,359 2163,1499 2163,2845l0 9555c0,949 -402,1765 -1155,2343 -752,577 -1645,755 -2562,509l-193135 -51748zm0 -28587l-193092 54640c-919,260 -1823,90 -2585,-487 -762,-576 -1171,-1399 -1171,-2355l0 -1313c0,-1337 853,-2470 2139,-2839l193897 -55599c556,-160 1072,-160 1628,0l193897 55599c1286,369 2139,1502 2139,2839l0 1313c0,956 -409,1779 -1171,2355 -762,577 -1666,747 -2585,487l-193096 -54640z"/>
 </g>
</svg>
