<?xml version="1.0" encoding="UTF-8"?>
<!DOCTYPE svg PUBLIC "-//W3C//DTD SVG 1.1//EN" "http://www.w3.org/Graphics/SVG/1.1/DTD/svg11.dtd">
<!-- Creator: CorelDRAW X7 -->
<svg xmlns="http://www.w3.org/2000/svg" xml:space="preserve" width="10in" height="10in" version="1.1" style="shape-rendering:geometricPrecision; text-rendering:geometricPrecision; image-rendering:optimizeQuality; fill-rule:evenodd; clip-rule:evenodd"
viewBox="0 0 1000000 1000000"
 xmlns:xlink="http://www.w3.org/1999/xlink">
 <defs>
  <style type="text/css">
   <![CDATA[
    .str1 {stroke:black;stroke-width:694.488}
    .str2 {stroke:black;stroke-width:694.488}
    .str0 {stroke:black;stroke-width:300}
    .fil1 {fill:none}
    .fil2 {fill:#666666}
    .fil0 {fill:gray}
   ]]>
  </style>
 </defs>
 <g id="Layer_x0020_1" visibility="hidden">
  <metadata id="CorelCorpID_0Corel-Layer"/>
  <path class="fil0" d="M516343 201389c8357,0 16615,418 24761,1221l2117 5115c18691,45165 69712,173406 28117,217046 -7529,7899 -17390,12282 -27882,14512 -395,-913 -835,-1802 -1316,-2664 8836,-12786 14618,-27349 14230,-43528 -807,-33631 -27918,-61099 -52929,-80267 -17922,-13735 -37717,-25561 -57631,-36154 -22481,-11959 -45752,-22629 -69237,-32504 39878,-27004 87982,-42777 139770,-42777zm-27113 261309c-10492,2230 -20353,6612 -27882,14511 -41595,43640 9426,171882 28118,217046l2119 5120c8144,802 16403,1216 24758,1216 137851,0 249601,-111750 249601,-249601 0,-121637 -87014,-222935 -202188,-245084 9624,23590 18535,47592 25976,71946 6591,21572 12225,43931 15186,66317 4132,31239 3880,69833 -19331,94184 -11165,11714 -25549,17922 -40835,20715 -3513,12380 -14902,21450 -28409,21450 -12148,0 -22581,-7337 -27113,-17820zm-20293 233391c-9627,-23595 -18539,-47602 -25982,-71961 -6592,-21572 -12225,-43931 -15186,-66316 -4132,-31240 -3880,-69833 19330,-94184 11165,-11714 25549,-17922 40836,-20715 272,-960 592,-1900 957,-2817 -8996,-5841 -19067,-9715 -29975,-9453 -60271,1445 -114874,128203 -133593,173356l-2115 5101c36242,44219 87369,75766 145728,86989zm-159417 -105330c9874,-23485 20545,-46754 32503,-69235 10592,-19915 22419,-39709 36155,-57631 19168,-25012 46635,-52123 80266,-52930 16180,-388 30743,5394 43527,14230 863,-481 1752,-922 2665,-1317 -2230,-10491 -6613,-20352 -14512,-27881 -43639,-41595 -171881,9426 -217046,28118l-5120 2118c-802,8145 -1215,16403 -1215,24759 0,51788 15773,99891 42777,139769zm-38275 -187175c23595,-9627 47601,-18540 71961,-25982 21571,-6592 43931,-12226 66316,-15186 31239,-4132 69833,-3880 94184,19330 11714,11165 17922,25550 20715,40836 959,273 1899,592 2816,957 5842,-8995 9716,-19067 9454,-29976 -1446,-60270 -128204,-114873 -173357,-133592l-5102 -2115c-44218,36242 -75765,87369 -86987,145728zm245098 -221880c148722,0 269286,120564 269286,269286 0,148723 -120564,269286 -269286,269286 -148723,0 -269286,-120563 -269286,-269286 0,-148722 120563,-269286 269286,-269286z"/>
 </g>
 <g id="Layer_x0020_2" visibility="hidden">
  <metadata id="CorelCorpID_1Corel-Layer"/>
  <path class="fil1 str0" d="M500000 7874c271794,0 492126,220332 492126,492126 0,271794 -220332,492126 -492126,492126 -271794,0 -492126,-220332 -492126,-492126 0,-271794 220332,-492126 492126,-492126z"/>
  <path class="fil1 str0" d="M500000 86614c228307,0 413386,185079 413386,413386 0,228307 -185079,413386 -413386,413386 -228307,0 -413386,-185079 -413386,-413386 0,-228307 185079,-413386 413386,-413386z"/>
  <path class="fil1 str0" d="M500000 440945c32615,0 59055,26440 59055,59055 0,32615 -26440,59055 -59055,59055 -32615,0 -59055,-26440 -59055,-59055 0,-32615 26440,-59055 59055,-59055z"/>
 </g>
 <g id="Layer_x0020_3" visibility="hidden">
  <metadata id="CorelCorpID_2Corel-Layer"/>
  <path class="fil1 str0" d="M500000 82677c114154,0 206693,92540 206693,206693 0,114154 -92539,206693 -206693,206693 -114154,0 -206693,-92539 -206693,-206693 0,-114153 92539,-206693 206693,-206693z"/>
  <path class="fil1 str0" d="M500000 503937c114154,0 206693,92539 206693,206693 0,114153 -92539,206693 -206693,206693 -114154,0 -206693,-92540 -206693,-206693 0,-114154 92539,-206693 206693,-206693z"/>
 </g>
 <g id="Layer_x0020_4" visibility="hidden">
  <metadata id="CorelCorpID_3Corel-Layer"/>
  <path class="fil1 str1" d="M558146 500000l-116395 0c10509,-10398 21478,-20393 32716,-29968 140790,-119952 141315,-233536 60,-353399l-30019 -25473 50946 -60038 30019 25473c166936,141656 177403,299510 32673,443405z"/>
  <path class="fil1 str1" d="M541115 458885l-82303 82303c78,-14783 767,-29607 1943,-44324 14734,-184373 -65210,-265059 -249848,-249933l-39239 3214 -6429 -78477 39239 -3214c218207,-17877 337228,86342 336637,290431z"/>
  <path class="fil1 str1" d="M500000 441854l0 116395c-10398,-10509 -20393,-21478 -29968,-32716 -119952,-140790 -233536,-141315 -353399,-60l-25473 30019 -60038 -50946 25473 -30019c141656,-166936 299510,-177403 443405,-32673z"/>
  <path class="fil1 str1" d="M458885 458885l82303 82303c-14783,-78 -29607,-767 -44324,-1943 -184373,-14734 -265059,65210 -249933,249848l3214 39239 -78477 6429 -3214 -39239c-17877,-218207 86342,-337228 290431,-336637z"/>
 </g>
 <g id="Layer_x0020_5" visibility="hidden">
  <metadata id="CorelCorpID_4Corel-Layer"/>
  <path class="fil1 str1" d="M500000 7874c271794,0 492126,220332 492126,492126 0,271794 -220332,492126 -492126,492126 -271794,0 -492126,-220332 -492126,-492126 0,-271794 220332,-492126 492126,-492126zm59044 491218c-27966,25201 -50059,37915 -104614,38472 -154262,511 -221409,81737 -207499,251529l3214 39239 -1175 96c69600,53279 156609,84958 251030,84958 228307,0 413386,-185079 413386,-413386 0,-206886 -151979,-378275 -350382,-408615 129767,132092 128124,275738 -3960,407707zm-392527 245196c1510,-166566 84840,-264534 237546,-282423 -96204,-72436 -189732,-51526 -287430,63608l-25473 30019 -938 -797c9300,70309 36260,135044 76295,189593zm-75132 -307290c118869,-116778 247094,-127150 367748,-31797 -16806,-119251 -97727,-170599 -248226,-158270l-39239 3214 -96 -1175c-41192,53810 -69481,118020 -80187,188028zm164327 -270481c166575,1509 264545,84849 282426,237571 72454,-96213 51534,-189747 -63611,-287455l-30019 -25473 797 -938c-70309,9300 -135044,36260 -189593,76295z"/>
 </g>
 <g id="Layer_x0020_6" visibility="hidden">
  <metadata id="CorelCorpID_5Corel-Layer"/>
  <path class="fil1 str1" d="M500000 7874c271794,0 492126,220332 492126,492126 0,271794 -220332,492126 -492126,492126 -271794,0 -492126,-220332 -492126,-492126 0,-271794 220332,-492126 492126,-492126z"/>
  <path class="fil1 str2" d="M559046 499090c108953,-108834 138003,-235446 42305,-363318 -5199,-6947 -5326,-16057 -323,-23146 5003,-7089 13630,-10021 21916,-7450 172508,53527 290442,214073 290442,394824 0,228306 -185080,413386 -413386,413386 -32085,0 -63348,-5769 -94529,-10717 -132989,-21103 -177415,-155875 -148025,-250367 22800,-73302 87250,-114178 196984,-114738 45814,-234 70351,-7611 104616,-38474z"/>
  <path class="fil1 str2" d="M733523 233378c76605,67273 120808,164592 120808,266622 0,195708 -158623,354331 -354331,354331 -28750,0 -56997,-5500 -85273,-9987 -40925,-6494 -72704,-28453 -91333,-65735 -16239,-32498 -20380,-73971 -9557,-108768 19357,-62233 84390,-72934 140894,-73223 60177,-307 98801,-13082 143838,-53648 755,-681 1493,-1380 2212,-2099 60978,-60910 109203,-137548 116603,-225156 2016,-23865 883,-47828 -3286,-71405 -889,-5030 1388,-9845 5839,-12350 4450,-2504 9748,-1952 13586,1418z"/>
  <path class="fil1 str2" d="M133923 692154c-20861,-39666 -35107,-82513 -42147,-126783 -933,-5871 585,-11294 4431,-15828l20426 -24070c43883,-51713 104526,-105696 176423,-105714 22417,-6 44025,5248 64454,14263 7796,3440 12351,11076 11676,19571 -676,8494 -6381,15313 -14623,17478 -108640,28532 -167891,105434 -183736,214744 -1245,8585 -7600,15109 -16149,16577 -8550,1468 -16718,-2561 -20755,-10238z"/>
  <path class="fil1 str2" d="M105218 377050c13329,-42811 33618,-83186 59948,-119485 3491,-4813 8401,-7575 14327,-8061l31414 -2573c67595,-5538 148655,-825 199504,49999 15857,15848 27421,34843 35492,55664 3080,7946 902,16566 -5583,22095 -6484,5528 -15340,6316 -22699,2018 -96837,-56555 -193484,-44033 -281827,21965 -6951,5193 -16062,5312 -23146,302 -7085,-5010 -10009,-13639 -7430,-21924z"/>
  <path class="fil1 str2" d="M307846 133923c39666,-20861 82513,-35107 126783,-42147 5871,-933 11294,585 15828,4431l24070 20426c51717,43886 105709,104535 105727,176437 6,22423 -5250,44035 -14270,64468 -3441,7796 -11077,12350 -19571,11674 -8494,-677 -15313,-6382 -17477,-14624 -28526,-108654 -105429,-167915 -214751,-183761 -8585,-1245 -15108,-7600 -16577,-16149 -1468,-8550 2561,-16718 10238,-20755z"/>
 </g>
 <g id="Final">
  <metadata id="CorelCorpID_6Corel-Layer"/>
  <path class="fil2" d="M500000 7874c271794,0 492126,220332 492126,492126 0,271794 -220332,492126 -492126,492126 -271794,0 -492126,-220332 -492126,-492126 0,-271794 220332,-492126 492126,-492126zm59046 491216c108953,-108834 138003,-235446 42305,-363318 -5199,-6947 -5326,-16057 -323,-23146 5003,-7089 13630,-10021 21916,-7450 172508,53527 290442,214073 290442,394824 0,228306 -185080,413386 -413386,413386 -32085,0 -63348,-5769 -94529,-10717 -132989,-21103 -177415,-155875 -148025,-250367 22800,-73302 87250,-114178 196984,-114738 45814,-234 70351,-7611 104616,-38474zm174477 -265712c76605,67273 120808,164592 120808,266622 0,195708 -158623,354331 -354331,354331 -28750,0 -56997,-5500 -85273,-9987 -40925,-6494 -72704,-28453 -91333,-65735 -16239,-32498 -20380,-73971 -9557,-108768 19357,-62233 84390,-72934 140894,-73223 60177,-307 98801,-13082 143838,-53648 755,-681 1493,-1380 2212,-2099 60978,-60910 109203,-137548 116603,-225156 2016,-23865 883,-47828 -3286,-71405 -889,-5030 1388,-9845 5839,-12350 4450,-2504 9748,-1952 13586,1418zm-599600 458776c-20861,-39666 -35107,-82513 -42147,-126783 -933,-5871 585,-11294 4431,-15828l20426 -24070c43883,-51713 104526,-105696 176423,-105714 22417,-6 44025,5248 64454,14263 7796,3440 12351,11076 11676,19571 -676,8494 -6381,15313 -14623,17478 -108640,28532 -167891,105434 -183736,214744 -1245,8585 -7600,15109 -16149,16577 -8550,1468 -16718,-2561 -20755,-10238zm-28705 -315104c13329,-42811 33618,-83186 59948,-119485 3491,-4813 8401,-7575 14327,-8061l31414 -2573c67595,-5538 148655,-825 199504,49999 15857,15848 27421,34843 35492,55664 3080,7946 902,16566 -5583,22095 -6484,5528 -15340,6316 -22699,2018 -96837,-56555 -193484,-44033 -281827,21965 -6951,5193 -16062,5312 -23146,302 -7085,-5010 -10009,-13639 -7430,-21924zm202628 -243127c39666,-20861 82513,-35107 126783,-42147 5871,-933 11294,585 15828,4431l24070 20426c51717,43886 105709,104535 105727,176437 6,22423 -5250,44035 -14270,64468 -3441,7796 -11077,12350 -19571,11674 -8494,-677 -15313,-6382 -17477,-14624 -28526,-108654 -105429,-167915 -214751,-183761 -8585,-1245 -15108,-7600 -16577,-16149 -1468,-8550 2561,-16718 10238,-20755z"/>
 </g>
</svg>
