<?xml version="1.0" encoding="UTF-8"?>
<!DOCTYPE svg PUBLIC "-//W3C//DTD SVG 1.1//EN" "http://www.w3.org/Graphics/SVG/1.1/DTD/svg11.dtd">
<!-- Creator: CorelDRAW X7 -->
<svg xmlns="http://www.w3.org/2000/svg" xml:space="preserve" width="10in" height="10in" version="1.1" style="shape-rendering:geometricPrecision; text-rendering:geometricPrecision; image-rendering:optimizeQuality; fill-rule:evenodd; clip-rule:evenodd"
viewBox="0 0 1000000 1000000"
 xmlns:xlink="http://www.w3.org/1999/xlink">
 <defs>
  <style type="text/css">
   <![CDATA[
    .str0 {stroke:black;stroke-width:694.488}
    .str1 {stroke:black;stroke-width:694.488}
    .fil0 {fill:none}
    .fil1 {fill:#666666}
   ]]>
  </style>
 </defs>
 <g id="Layer_x0020_1" visibility="hidden">
  <metadata id="CorelCorpID_0Corel-Layer"/>
  <path class="fil0 str0" d="M500000 7874c271794,0 492126,220332 492126,492126 0,271794 -220332,492126 -492126,492126 -271794,0 -492126,-220332 -492126,-492126 0,-271794 220332,-492126 492126,-492126z"/>
  <rect class="fil0 str0" x="185039" y="185039" width="629921" height="629921"/>
 </g>
 <g id="Layer_x0020_2" visibility="hidden">
  <metadata id="CorelCorpID_1Corel-Layer"/>
  <polygon class="fil0 str0" points="185039,185039 814961,185039 814961,500000 185039,500000 "/>
  <polygon id="Out" class="fil0 str1" points="259843,456693 259843,417323 346457,417323 346457,456693 417323,456693 417323,417323 464567,417323 464567,456693 496063,456693 496063,374261 543307,374261 543307,496063 582677,496063 582677,535433 653543,535433 653543,456693 700787,456693 700787,496063 732283,496063 732283,417323 779528,417323 779528,456693 818898,456693 818898,622017 524964,624254 445925,600809 220472,567007 220472,456693 "/>
  <polygon id="Key" class="fil0 str0" points="224409,563617 224409,460630 263780,460630 263780,421260 303150,421260 342520,421260 342520,460630 421260,460630 421260,421260 460630,421260 460630,460630 500000,460630 500000,378198 539370,378198 539370,500000 578740,500000 578740,539370 657480,539370 657480,460630 696850,460630 696850,500000 736220,500000 736220,421260 775591,421260 775591,460630 814961,460630 814961,500000 814961,618110 525521,620313 446781,596957 "/>
  <polygon id="In" class="fil0 str1" points="228346,560226 447637,593104 526078,616371 811024,614203 811024,464567 771654,464567 771654,425197 740157,425197 740157,503937 692913,503937 692913,464567 661417,464567 661417,543307 574803,543307 574803,503937 535433,503937 535433,382135 503937,382135 503937,464567 456693,464567 456693,425197 425197,425197 425197,464567 338583,464567 338583,425197 267717,425197 267717,464567 228346,464567 "/>
  <polygon class="fil0 str0" points="814961,814961 185039,814961 185039,500000 530633,500000 571354,566146 664063,574479 698437,517187 814961,500000 "/>
 </g>
 <g id="Layer_x0020_3" visibility="hidden">
  <metadata id="CorelCorpID_2Corel-Layer"/>
  <polygon class="fil0 str0" points="814961,814961 185039,814961 185039,503937 228346,503937 228346,500000 228346,496063 228346,464567 267717,464567 267717,425197 338583,425197 338583,464567 425197,464567 425197,425197 456693,425197 456693,464567 503937,464567 503937,382135 535433,382135 535433,503937 574803,503937 574803,543307 661417,543307 661417,464567 692913,464567 692913,503937 740157,503937 740157,425197 771654,425197 771654,464567 814961,464567 "/>
  <polygon class="fil0 str0" points="814961,456693 814961,185039 185039,185039 185039,496063 220472,496063 220472,456693 259843,456693 259843,417323 346457,417323 346457,456693 417323,456693 417323,417323 464567,417323 464567,456693 496063,456693 496063,374261 543307,374261 543307,496063 582677,496063 582677,535433 653543,535433 653543,456693 700787,456693 700787,496063 732283,496063 732283,417323 779528,417323 779528,456693 "/>
 </g>
 <g id="Layer_x0020_4" visibility="hidden">
  <metadata id="CorelCorpID_3Corel-Layer"/>
  <path class="fil0 str1" d="M228346 543306l0 -31495c0,-4337 3537,-7874 7874,-7874l31497 -1 0 -31496c0,-4337 3537,-7874 7874,-7874l55118 0c4337,0 7874,3537 7874,7874l0 31496 86614 1 0 -31497c0,-4337 3537,-7874 7874,-7874l15748 0c4337,0 7874,3537 7874,7874l0 31496 47244 0 0 -74557c0,-4337 3537,-7874 7874,-7874l15748 0c4337,0 7874,3537 7874,7874l0 113927 125984 0 0 -31495c0,-4337 3537,-7874 7874,-7874l15748 0c4337,0 7874,3537 7874,7874l0 31495 47244 0 0 -70866c0,-4337 3537,-7874 7874,-7874l15749 0c4337,0 7874,3537 7874,7874l0 31496 35433 0c4337,0 7874,3537 7874,7874l0 334646c0,4337 -3537,7874 -7874,7874l-614174 0c-4337,0 -7874,-3537 -7874,-7874l0 -295276c0,-4337 3537,-7874 7874,-7874l35433 0z"/>
  <path class="fil0 str1" d="M779528 417323l-47245 0 0 70866c0,4337 -3537,7874 -7874,7874l-15748 0c-4337,0 -7874,-3537 -7874,-7874l0 -31496 -47244 0 0 70866c0,4337 -3537,7874 -7874,7874l-55118 0c-4337,0 -7874,-3537 -7874,-7874l0 -31496 -31496 0c-4337,0 -7874,-3537 -7874,-7874l0 -113928 -47244 0 0 74558c0,4337 -3537,7874 -7874,7874l-15748 0c-4337,0 -7874,-3537 -7874,-7874l0 -31496 -47244 0 0 31496c0,4337 -3537,7874 -7874,7874l-55118 0c-4337,0 -7874,-3537 -7874,-7874l0 -31496 -86614 0 0 31496c0,4337 -3537,7874 -7874,7874l-31497 0 0 31496c0,4337 -3537,7874 -7874,7874l-19685 0c-4337,0 -7874,-3537 -7874,-7874l0 -295276c0,-4337 3537,-7874 7874,-7874l614174 0c4337,0 7874,3537 7874,7874l0 255906c0,4337 -3537,7874 -7874,7874l-19685 0c-4337,0 -7874,-3537 -7874,-7874l0 -31496z"/>
  <rect class="fil0 str0" x="131771" y="327604" width="737500" height="329167"/>
 </g>
 <g id="Layer_x0020_5" visibility="hidden">
  <metadata id="CorelCorpID_4Corel-Layer"/>
  <path class="fil0 str1" d="M228346 543306l0 -31495c0,-4337 3537,-7874 7874,-7874l31497 -1 0 -31496c0,-4337 3537,-7874 7874,-7874l55118 0c4337,0 7874,3537 7874,7874l0 31496 86614 1 0 -31497c0,-4337 3537,-7874 7874,-7874l15748 0c4337,0 7874,3537 7874,7874l0 31496 47244 0 0 -74557c0,-4337 3537,-7874 7874,-7874l15748 0c4337,0 7874,3537 7874,7874l0 113927 125984 0 0 -31495c0,-4337 3537,-7874 7874,-7874l15748 0c4337,0 7874,3537 7874,7874l0 31495 47244 0 0 -70866c0,-4337 3537,-7874 7874,-7874l15749 0c4337,0 7874,3537 7874,7874l0 31496 35433 0c4337,0 7874,3537 7874,7874l0 334646c0,4337 -3537,7874 -7874,7874l-614174 0c-4337,0 -7874,-3537 -7874,-7874l0 -295276c0,-4337 3537,-7874 7874,-7874l35433 0zm551182 -125983l-47245 0 0 70866c0,4337 -3537,7874 -7874,7874l-15748 0c-4337,0 -7874,-3537 -7874,-7874l0 -31496 -47244 0 0 70866c0,4337 -3537,7874 -7874,7874l-55118 0c-4337,0 -7874,-3537 -7874,-7874l0 -31496 -31496 0c-4337,0 -7874,-3537 -7874,-7874l0 -113928 -47244 0 0 74558c0,4337 -3537,7874 -7874,7874l-15748 0c-4337,0 -7874,-3537 -7874,-7874l0 -31496 -47244 0 0 31496c0,4337 -3537,7874 -7874,7874l-55118 0c-4337,0 -7874,-3537 -7874,-7874l0 -31496 -86614 0 0 31496c0,4337 -3537,7874 -7874,7874l-31497 0 0 31496c0,4337 -3537,7874 -7874,7874l-19685 0c-4337,0 -7874,-3537 -7874,-7874l0 -295276c0,-4337 3537,-7874 7874,-7874l614174 0c4337,0 7874,3537 7874,7874l0 255906c0,4337 -3537,7874 -7874,7874l-19685 0c-4337,0 -7874,-3537 -7874,-7874l0 -31496z"/>
  <path class="fil0 str0" d="M500000 130906c203845,0 369094,165249 369094,369094 0,203845 -165249,369094 -369094,369094 -203845,0 -369094,-165249 -369094,-369094 0,-203845 165249,-369094 369094,-369094z"/>
  <path class="fil0 str0" d="M500000 7874c173948,0 314961,220332 314961,492126 0,271794 -141013,492126 -314961,492126 -173948,0 -314961,-220332 -314961,-492126 0,-271794 141013,-492126 314961,-492126z"/>
  <path class="fil0 str0" d="M500000 130906c203845,0 369094,165249 369094,369094 0,203845 -165249,369094 -369094,369094 -203845,0 -369094,-165249 -369094,-369094 0,-203845 165249,-369094 369094,-369094z"/>
 </g>
 <g id="Layer_x0020_6">
  <metadata id="CorelCorpID_5Corel-Layer"/>
  <path class="fil1" d="M771199 249668c16397,17756 31071,37126 43762,57843l0 -19c5676,9266 10953,18804 15811,28587l17 33c1253,2524 2478,5065 3676,7622l11 25c1778,3799 3494,7634 5145,11502l127 298c527,1239 1048,2480 1563,3725l21 53c1048,2539 2068,5094 3061,7662l183 474c977,2538 1927,5090 2850,7655l146 412c410,1144 815,2290 1213,3440l187 537c874,2529 1720,5072 2540,7626l238 745c349,1095 693,2193 1032,3293l168 543c397,1296 788,2595 1171,3897l80 273c343,1171 680,2344 1013,3520l232 825c332,1187 660,2377 982,3569l65 238c349,1302 691,2606 1027,3913l180 711c270,1063 537,2127 798,3194l218 890c622,2566 1217,5143 1786,7730l202 928c221,1020 437,2042 650,3064l200 961c261,1274 518,2550 766,3830l102 534c217,1127 428,2255 635,3385l193 1064c189,1050 372,2101 553,3154l134 780c218,1292 429,2585 633,3881l134 868c164,1052 322,2104 477,3158l153 1055c161,1125 318,2252 470,3381l83 610c170,1287 332,2578 489,3869l129 1084c120,1014 237,2029 349,3045l115 1048c142,1325 279,2652 407,3982l21 228c119,1243 231,2488 337,3735l96 1149c87,1046 168,2093 246,3142l68 916c95,1334 184,2669 265,4006l43 749c64,1097 123,2195 178,3294l56 1167c53,1124 100,2250 142,3377l28 697c48,1328 86,2658 120,3990l24 1087c22,1022 40,2046 55,3070l15 1185c16,1346 24,2693 24,4043 0,1350 -9,2697 -24,4043l-15 1185c-14,1024 -33,2048 -55,3070l-24 1087c-33,1331 -73,2660 -120,3987 -9,248 -20,495 -30,743 -41,1098 -87,2194 -138,3289l-59 1234c-53,1062 -111,2124 -173,3184l-50 876c-80,1322 -167,2643 -262,3961l-72 971c-74,1007 -153,2012 -236,3017l-107 1286c-104,1213 -212,2423 -328,3632l-25 274c-128,1327 -265,2650 -407,3972l-117 1064c-111,1009 -226,2018 -346,3024 -43,367 -86,734 -130,1101 -157,1288 -319,2574 -489,3858l-87 638c-149,1112 -304,2223 -463,3333l-165 1135c-144,989 -293,1977 -446,2964l-165 1065c-199,1260 -404,2517 -615,3772l-169 978c-166,967 -335,1933 -508,2897l-235 1295c-184,1004 -372,2006 -564,3008l-161 848c-240,1234 -487,2466 -740,3696 -83,405 -168,809 -252,1214 -187,897 -378,1792 -571,2687l-272 1253c-272,1235 -548,2469 -832,3700l-91 386c-262,1130 -531,2258 -803,3384l-296 1211c-226,920 -456,1837 -689,2754 -91,359 -180,718 -272,1076 -317,1232 -639,2461 -969,3688l-201 740c-273,1010 -551,2018 -832,3025l-314 1115c-287,1015 -579,2028 -874,3039l-213 732c-360,1221 -727,2439 -1099,3655 -100,327 -202,653 -304,980 -284,921 -572,1840 -864,2757l-361 1132c-377,1172 -757,2342 -1145,3509l-41 124c-405,1217 -819,2432 -1237,3644l-352 1013c-333,958 -670,1914 -1011,2869l-300 840c-442,1226 -889,2450 -1343,3670l-125 332c-415,1113 -836,2222 -1262,3330l-335 867c-407,1051 -819,2101 -1235,3148l-195 491c-490,1226 -986,2448 -1488,3668l-232 557c-432,1043 -869,2084 -1310,3123l-316 741c-1047,2450 -2120,4886 -3218,7308l-189 414c-505,1111 -1016,2218 -1532,3323l-201 431c-1157,2468 -2341,4921 -3550,7359l-142 287c-602,1211 -1210,2418 -1825,3621l-3 7c-4325,8466 -8968,16745 -13912,24817l0 -19c-12691,20717 -27365,40088 -43762,57843 26702,-70471 42489,-152232 43685,-239613 -534,-3824 -3831,-6783 -7797,-6783l-35433 0 0 -31496c0,-4337 -3537,-7874 -7874,-7874l-15749 0c-4337,0 -7874,3537 -7874,7874l0 70866 -47244 0 0 -31495c0,-4337 -3537,-7874 -7874,-7874l-15748 0c-4337,0 -7874,3537 -7874,7874l0 31495 -125984 0 0 -113927c0,-4337 -3537,-7874 -7874,-7874l-15748 0c-4337,0 -7874,3537 -7874,7874l0 74557 -47244 0 0 -31496c0,-4337 -3537,-7874 -7874,-7874l-15748 0c-4337,0 -7874,3537 -7874,7874l0 31497 -86614 -1 0 -31496c0,-4337 -3537,-7874 -7874,-7874l-55118 0c-4337,0 -7874,3537 -7874,7874l0 31496 -31497 1c-4337,0 -7874,3537 -7874,7874l0 31495 -35433 0c-2676,0 -5048,1348 -6472,3399 4454,73838 19358,142921 42360,203627 -16397,-17756 -31071,-37126 -43762,-57843l0 19c-9333,-15235 -17590,-31202 -24669,-47791l-106 -248c-1619,-3802 -3176,-7637 -4670,-11503l-156 -405c-986,-2559 -1944,-5131 -2874,-7717l-118 -332c-422,-1175 -837,-2353 -1246,-3533l-162 -466c-881,-2549 -1733,-5110 -2559,-7684l-218 -683c-355,-1117 -707,-2237 -1053,-3359l-154 -497c-400,-1308 -795,-2618 -1182,-3933l-52 -179c-353,-1200 -698,-2404 -1039,-3609l-222 -791c-338,-1205 -671,-2413 -997,-3624l-52 -189c-351,-1309 -695,-2621 -1033,-3936l-171 -673c-274,-1078 -543,-2157 -808,-3238l-211 -859c-624,-2574 -1221,-5159 -1791,-7754l-196 -899c-224,-1032 -443,-2066 -658,-3101l-194 -931c-263,-1281 -520,-2563 -770,-3848l-96 -504c-219,-1135 -432,-2273 -640,-3411l-190 -1053c-191,-1060 -377,-2121 -559,-3184l-129 -751c-219,-1293 -430,-2590 -634,-3888l-134 -862c-163,-1055 -323,-2112 -478,-3171l-152 -1045c-162,-1127 -318,-2254 -470,-3384l-83 -610c-170,-1287 -332,-2578 -489,-3869l-129 -1084c-120,-1014 -237,-2029 -349,-3045l-115 -1048c-142,-1325 -279,-2652 -407,-3982l-21 -228c-119,-1243 -231,-2488 -337,-3735l-96 -1149c-87,-1046 -168,-2093 -246,-3142l-68 -916c-95,-1334 -184,-2669 -265,-4006l-43 -749c-64,-1097 -123,-2195 -178,-3294l-56 -1167c-53,-1124 -100,-2250 -142,-3377l-28 -697c-48,-1328 -86,-2658 -120,-3990l-24 -1087c-22,-1022 -40,-2046 -55,-3070l-15 -1185c-16,-1346 -24,-2693 -24,-4043 0,-1350 9,-2697 24,-4043l15 -1185c14,-1024 33,-2048 55,-3070l24 -1087c33,-1331 73,-2660 120,-3987 9,-248 20,-495 30,-743 41,-1098 87,-2194 138,-3289l59 -1234c53,-1062 111,-2124 173,-3184l50 -876c80,-1322 167,-2643 262,-3961l72 -971c74,-1007 153,-2012 236,-3017l107 -1286c104,-1213 212,-2423 328,-3632l25 -274c128,-1327 265,-2650 407,-3972l117 -1064c111,-1009 226,-2018 346,-3024 43,-367 86,-734 130,-1101 157,-1288 319,-2574 489,-3858l87 -638c149,-1112 304,-2223 463,-3333l165 -1135c144,-989 293,-1977 446,-2964l165 -1065c199,-1260 404,-2517 615,-3772l169 -978c166,-967 335,-1933 508,-2897l235 -1295c184,-1004 372,-2006 564,-3008l161 -848c240,-1234 487,-2466 740,-3696 83,-405 168,-809 252,-1214 187,-897 378,-1792 571,-2687l272 -1253c272,-1235 548,-2469 832,-3700l91 -386c262,-1130 531,-2258 803,-3384l296 -1211c226,-920 456,-1837 689,-2754 91,-359 180,-718 272,-1076 317,-1232 639,-2461 969,-3688l201 -740c273,-1010 551,-2018 832,-3025l314 -1115c287,-1015 579,-2028 874,-3039l213 -732c360,-1221 727,-2439 1099,-3655 100,-327 202,-653 304,-980 284,-921 572,-1840 864,-2757l361 -1132c377,-1172 757,-2342 1145,-3509l41 -124c405,-1217 819,-2432 1237,-3644l352 -1013c333,-958 670,-1914 1011,-2869l300 -840c442,-1226 889,-2450 1343,-3670l125 -332c415,-1113 836,-2222 1262,-3330l335 -867c407,-1051 819,-2101 1235,-3148l195 -491c490,-1226 986,-2448 1488,-3668l232 -557c432,-1043 869,-2084 1310,-3123l316 -741c1047,-2450 2120,-4886 3218,-7308l189 -414c505,-1111 1016,-2218 1532,-3323l201 -431c1157,-2468 2341,-4921 3550,-7359l142 -287c602,-1211 1210,-2418 1825,-3621l3 -7c4325,-8466 8968,-16745 13912,-24817l0 19c12691,-20717 27365,-40088 43762,-57843 -26702,70471 -42488,152231 -43685,239613 534,3823 3831,6782 7797,6782l19685 0c4337,0 7874,-3537 7874,-7874l0 -31496 31497 0c4337,0 7874,-3537 7874,-7874l0 -31496 86614 0 0 31496c0,4337 3537,7874 7874,7874l55118 0c4337,0 7874,-3537 7874,-7874l0 -31496 47244 0 0 31496c0,4337 3537,7874 7874,7874l15748 0c4337,0 7874,-3537 7874,-7874l0 -74558 47244 0 0 113928c0,4337 3537,7874 7874,7874l31496 0 0 31496c0,4337 3537,7874 7874,7874l55118 0c4337,0 7874,-3537 7874,-7874l0 -70866 47244 0 0 31496c0,4337 3537,7874 7874,7874l15748 0c4337,0 7874,-3537 7874,-7874l0 -70866 47245 0 0 31496c0,4337 3537,7874 7874,7874l19685 0c2676,0 5048,-1348 6472,-3399 -4454,-73837 -19358,-142920 -42360,-203626z"/>
 </g>
</svg>
