<?xml version="1.0" encoding="UTF-8"?>
<!DOCTYPE svg PUBLIC "-//W3C//DTD SVG 1.1//EN" "http://www.w3.org/Graphics/SVG/1.1/DTD/svg11.dtd">
<!-- Creator: CorelDRAW X7 -->
<svg xmlns="http://www.w3.org/2000/svg" xml:space="preserve" width="10in" height="10in" version="1.1" style="shape-rendering:geometricPrecision; text-rendering:geometricPrecision; image-rendering:optimizeQuality; fill-rule:evenodd; clip-rule:evenodd"
viewBox="0 0 1000000 1000000"
 xmlns:xlink="http://www.w3.org/1999/xlink">
 <defs>
  <style type="text/css">
   <![CDATA[
    .fil0 {fill:#666666}
   ]]>
  </style>
 </defs>
 <g id="Layer_x0020_1">
  <metadata id="CorelCorpID_0Corel-Layer"/>
  <path class="fil0" d="M51403 584141l225136 -169001 112874 -357987c-198610,49433 -345781,228932 -345781,442847 0,28749 2687,56867 7771,84141zm378054 -535078l-103881 329468 599258 -45556c-66659,-169428 -231734,-289343 -424834,-289343 -23993,0 -47554,1855 -70543,5431zm507474 318853l-598531 45501 -256975 192900 802723 140161c45703,-71087 72220,-155683 72220,-246478 0,-45934 -6814,-90269 -19437,-132084zm-75620 410874l-795824 -138955c59046,183641 231241,316533 434513,316533 147064,0 277852,-69571 361311,-177578zm-361311 -770916c271793,0 492126,220333 492126,492126 0,271793 -220333,492126 -492126,492126 -271793,0 -492126,-220333 -492126,-492126 0,-271793 220333,-492126 492126,-492126z"/>
 </g>
</svg>
