<?xml version="1.0" encoding="UTF-8"?>
<!DOCTYPE svg PUBLIC "-//W3C//DTD SVG 1.1//EN" "http://www.w3.org/Graphics/SVG/1.1/DTD/svg11.dtd">
<!-- Creator: CorelDRAW X7 -->
<svg xmlns="http://www.w3.org/2000/svg" xml:space="preserve" width="10in" height="10in" version="1.1" style="shape-rendering:geometricPrecision; text-rendering:geometricPrecision; image-rendering:optimizeQuality; fill-rule:evenodd; clip-rule:evenodd"
viewBox="0 0 1000000 1000000"
 xmlns:xlink="http://www.w3.org/1999/xlink">
 <defs>
  <style type="text/css">
   <![CDATA[
    .fil0 {fill:#666666}
   ]]>
  </style>
 </defs>
 <g id="Layer_x0020_1">
  <metadata id="CorelCorpID_0Corel-Layer"/>
  <path class="fil0" d="M878136 406081c-27468,-87751 -81230,-164133 -154386,-219850 -28719,-21873 -60011,-40235 -93153,-54546 -5727,-2472 -9615,-7009 -11183,-13045 -1568,-6038 -379,-11893 3421,-16840 13662,-17788 29413,-33946 46936,-47952 6031,-4821 13796,-5692 20744,-2329 32650,15805 63661,34898 92517,56876 81055,61733 142756,144332 178587,239724 2493,6638 1396,13554 -3029,19093 -14565,18234 -31364,34655 -50030,48671 -5243,3937 -11508,4988 -17750,2977 -6242,-2010 -10715,-6522 -12674,-12779z"/>
  <path class="fil0" d="M594343 282051c-5974,-26518 -7389,-53932 -4745,-80964 689,-7044 4382,-12802 10497,-16365 6116,-3565 12945,-3939 19413,-1067 26883,11939 52296,27022 75696,44845 64060,48789 110608,116177 133274,193433 1930,6573 803,13048 -3232,18585 -4036,5535 -9856,8589 -16704,8764 -26965,691 -53861,-3244 -79324,-12226 -5930,-2092 -10230,-6172 -12629,-11984 -18296,-44304 -47928,-82622 -86056,-111661 -8397,-6395 -17166,-12306 -26248,-17687 -5243,-3108 -8603,-7728 -9942,-13673z"/>
  <path class="fil0" d="M494672 274229c-68733,1462 -132724,34064 -174396,88778 -75432,99042 -56321,240272 42720,315704 99042,75433 240272,56322 315704,-42720 22618,-29695 37521,-64321 43345,-101189 1507,-9536 10374,-16142 19942,-14855 78251,10523 157404,-13028 220637,-59434 5409,-3970 12079,-4608 18142,-1736 6063,2873 9793,8438 10148,15138 6169,116652 -29137,230800 -99933,323754 -164674,216215 -473448,257997 -689662,93323 -216215,-164674 -257997,-473448 -93323,-689662 109444,-143699 288643,-215836 467029,-188180 6452,1000 11496,5055 13859,11142 2361,6088 1374,12484 -2715,17575 -1875,2336 -3721,4695 -5536,7079 -45132,59257 -70505,132322 -68556,207034 128,4912 -1519,9185 -4910,12741 -3392,3557 -7582,5403 -12495,5508z"/>
  <path class="fil0" d="M606716 360600l39196 41753c3386,3606 5000,7931 4806,12874 -195,4943 -2143,9127 -5802,12457l-223298 203225c-7175,6530 -18303,6092 -24944,-981l-39196 -41753c-3385,-3607 -4999,-7932 -4805,-12875 195,-4943 2143,-9128 5802,-12457l223297 -203224c7176,-6531 18304,-6093 24944,981z"/>
 </g>
</svg>
