<?xml version="1.0" encoding="UTF-8"?>
<!DOCTYPE svg PUBLIC "-//W3C//DTD SVG 1.1//EN" "http://www.w3.org/Graphics/SVG/1.1/DTD/svg11.dtd">
<!-- Creator: CorelDRAW X7 -->
<svg xmlns="http://www.w3.org/2000/svg" xml:space="preserve" width="10in" height="10in" version="1.1" style="shape-rendering:geometricPrecision; text-rendering:geometricPrecision; image-rendering:optimizeQuality; fill-rule:evenodd; clip-rule:evenodd"
viewBox="0 0 1000000 1000000"
 xmlns:xlink="http://www.w3.org/1999/xlink">
 <defs>
  <style type="text/css">
   <![CDATA[
    .fil0 {fill:#666666}
   ]]>
  </style>
 </defs>
 <g id="Layer_x0020_1">
  <metadata id="CorelCorpID_0Corel-Layer"/>
  <path class="fil0" d="M689228 155451c216587,125047 290794,401995 165748,618581 -125046,216586 -401995,290795 -618580,165748l45284 -78434c-216587,-125048 -290796,-401994 -165748,-618581 125046,-216586 401995,-290795 618580,-165748l-45284 78434zm33887 80859c61365,51729 102658,123313 116813,202309 1959,10927 -751,21122 -7874,29636 -7125,8515 -16687,12675 -27784,12980l-285354 7844 149477 -243184c5812,-9455 14191,-15656 25123,-17570 10932,-1915 21113,831 29599,7985zm12589 96233c25990,15005 34895,48238 19889,74229 -15006,25991 -48238,34896 -74229,19890 -25991,-15006 -34896,-48238 -19890,-74230 15006,-25991 48239,-34895 74230,-19889zm-435580 -134252c68159,-42378 149001,-59530 228503,-48580 10999,1514 19857,7240 25754,16646 5895,9408 6897,19787 3758,30436l-80719 273811 -185090 -217309c-7197,-8449 -10505,-18334 -8947,-29323 1558,-10988 7315,-19823 16741,-25681zm95413 17763c22303,-20081 56660,-18281 76742,4022 20082,22303 18282,56661 -4022,76743 -22303,20082 -56661,18281 -76742,-4021 -20083,-22304 -18282,-56663 4022,-76744zm-262284 372775c-19241,-77919 -10572,-160104 24410,-232333 4839,-9991 13021,-16646 23791,-19346 10768,-2702 20949,-447 30105,5830l235467 161381 -263869 108878c-10259,4233 -20681,4326 -30652,-551 -9970,-4878 -16593,-13084 -19252,-23859zm46378 -85253c-12206,-27417 124,-59537 27541,-71745 27417,-12207 59537,124 71744,27541 12208,27417 -123,59537 -27540,71744 -27418,12207 -59537,-123 -71745,-27540zm273481 364640c-80051,-5779 -155535,-39421 -213418,-95009 -8007,-7691 -11808,-17529 -11050,-28605 760,-11077 6050,-20063 14850,-26831l226245 -174073 22009 284600c856,11064 -2278,21006 -9996,28981 -7719,7974 -17571,11737 -28640,10937zm-66749 -70453c-29848,3137 -56585,-18515 -59722,-48363 -3137,-29848 18515,-56585 48362,-59722 29849,-3138 56585,18515 59722,48362 3137,29848 -18514,56586 -48362,59723z"/>
 </g>
</svg>
