<?xml version="1.0" encoding="UTF-8"?>
<!DOCTYPE svg PUBLIC "-//W3C//DTD SVG 1.1//EN" "http://www.w3.org/Graphics/SVG/1.1/DTD/svg11.dtd">
<!-- Creator: CorelDRAW X7 -->
<svg xmlns="http://www.w3.org/2000/svg" xml:space="preserve" width="10in" height="10in" version="1.1" style="shape-rendering:geometricPrecision; text-rendering:geometricPrecision; image-rendering:optimizeQuality; fill-rule:evenodd; clip-rule:evenodd"
viewBox="0 0 1000000 1000000"
 xmlns:xlink="http://www.w3.org/1999/xlink">
 <defs>
  <style type="text/css">
   <![CDATA[
    .str0 {stroke:black;stroke-width:694.488}
    .fil0 {fill:none}
    .fil1 {fill:#4D4D4D}
   ]]>
  </style>
   <clipPath id="id0">
    <rect x="-2470515" y="-739985" width="3248640" height="2008310"/>
   </clipPath>
 </defs>
 <g id="Layer_x0020_1" visibility="hidden">
  <metadata id="CorelCorpID_0Corel-Layer"/>
  <path class="fil0 str0" d="M500000 7874c271794,0 492126,220332 492126,492126 0,271794 -220332,492126 -492126,492126 -271794,0 -492126,-220332 -492126,-492126 0,-271794 220332,-492126 492126,-492126z"/>
 </g>
 <g id="Layer_x0020_2" visibility="hidden">
  <metadata id="CorelCorpID_1Corel-Layer"/>
  <g style="clip-path:url(#id0)">
   <image x="-2470515" y="-739985" width="3248640" height="2008310" xlink:href="9_Scale_Images\9_Scale_ImgID1.gif"/>
  </g>
 </g>
 <g id="Layer_x0020_3" visibility="hidden">
  <metadata id="CorelCorpID_2Corel-Layer"/>
  <polygon class="fil0 str0" points="529194,1050400 504494,1003742 542917,904938 627998,937873 746015,1053144 699357,1135481 "/>
  <polygon class="fil0 str0" points="660933,924150 756993,1022954 899711,1058634 982048,959830 735037,847302 "/>
  <polygon class="fil0 str0" points="721314,797899 803651,652438 1053406,775944 1009493,839069 995770,924150 "/>
  <polygon class="fil0 str0" points="682890,490509 789928,600291 885988,644204 1067128,745754 1341585,600291 1113787,438362 913433,408172 724058,424639 "/>
  <polygon class="fil0 str0" points="402944,1011975 301396,847302 298651,786922 416667,800644 518216,880236 493515,970807 488026,1039422 "/>
  <polygon class="fil0 str0" points="520961,839069 641721,915916 707591,836324 611531,764965 "/>
  <polygon class="fil0 str0" points="488026,814367 586830,751242 526449,679884 397455,644204 433135,775944 "/>
  <polygon class="fil0 str0" points="553896,668905 693868,778688 770717,641460 696613,575590 "/>
  <polygon class="fil0 str0" points="531939,646949 405689,608525 342565,501487 438624,413661 520961,413661 608786,471296 669167,545400 "/>
  <polygon class="fil0 str0" points="70852,795156 139467,734774 221804,745754 268461,797899 276695,863769 350798,1000998 224548,959830 122999,880236 65363,833579 "/>
  <polygon class="fil0 str0" points="158679,707329 142211,646949 213569,608525 268461,649693 227293,710074 "/>
  <polygon class="fil0 str0" points="287673,619503 232781,567357 230037,531678 268461,504231 317863,515210 375499,616758 "/>
  <polygon class="fil0 str0" points="652700,468553 578596,408172 611531,391704 682890,424639 "/>
  <polygon class="fil0 str0" points="589575,336814 710335,383471 885988,350536 976558,284667 993026,216053 710335,-9001 537428,122738 567619,161161 "/>
  <polygon class="fil0 str0" points="534683,306623 526449,180373 504494,130971 359032,78824 243760,111759 287673,268200 "/>
  <polygon class="fil0 str0" points="243760,270944 241015,210563 219059,136460 161423,128226 79086,213308 139467,276433 "/>
  <polygon class="fil0 str0" points="-16974,817111 117509,718307 122999,633226 35173,561868 -41675,561868 -118522,581080 -176159,633226 "/>
  <polygon class="fil0 str0" points="32428,539911 98298,550890 136722,520699 122999,471296 79086,474041 "/>
  <polygon class="fil0 str0" points="133977,614015 109276,592057 128489,550890 183379,542656 208081,567357 199846,581080 "/>
  <polygon class="fil0 str0" points="147700,468553 177891,512465 210826,520699 241015,487764 221804,463063 "/>
  <polygon class="fil0 str0" points="241015,399939 241015,441106 282183,468553 328841,474041 405689,397194 375499,367004 323352,367004 "/>
  <polygon class="fil0 str0" points="205336,435618 131232,432873 133977,375237 158679,380726 205336,408172 "/>
  <polygon class="fil0 str0" points="136722,320346 194358,367004 328841,342302 287673,301134 "/>
  <polygon class="fil0 str0" points="485281,350536 551151,347792 570363,377981 515472,380726 "/>
  <polygon class="fil0 str0" points="356287,345047 408434,350536 422157,380726 474304,383471 444113,353281 400200,339557 375499,320346 353543,325835 "/>
  <polygon class="fil0 str0" points="-88332,539911 -3250,539911 59874,460319 -11485,410917 -96567,441106 "/>
  <polygon class="fil0 str0" points="10472,394449 62619,435618 106531,438362 106531,383471 15961,369748 "/>
  <polygon class="fil0 str0" points="21450,345047 90064,361514 122999,358770 122999,334069 106531,328580 35173,320346 "/>
  <polygon class="fil0 str0" points="13217,298389 120254,298389 54385,224286 15961,216053 -25207,257220 "/>
  <polygon class="fil0 str0" points="243760,723797 295906,762221 397455,770454 367265,657927 298651,657927 "/>
  <polygon class="fil0 str0" points="370010,48634 485281,92547 520961,87058 663678,-28213 669167,-69382 575852,-127018 "/>
 </g>
 <g id="Layer_x0020_4">
  <metadata id="CorelCorpID_3Corel-Layer"/>
  <path class="fil1" d="M409654 16187c29783,-5530 60054,-8313 90346,-8313 29642,0 59267,2656 88431,7957 3100,564 5443,2748 6221,5801 779,3053 -231,6092 -2682,8072l-69357 56020c-1132,914 -2313,1436 -3750,1657l-31525 4849c-1410,217 -2668,84 -4001,-424l-100917 -38445c-2672,-1018 -4469,-3199 -4956,-6016 -487,-2817 473,-5476 2648,-7332l25868 -22074c1098,-937 2254,-1488 3674,-1752zm157965 144974l-25253 -32139c-1352,-1721 -1896,-3689 -1619,-5861 277,-2171 1297,-3940 3038,-5267l108211 -82446c2153,-1641 4758,-2063 7320,-1187 128275,43877 233325,139542 289213,263025 1556,3438 510,7395 -2542,9615l-58563 42591c-991,720 -1977,1145 -3180,1371l-171708 32196c-1504,282 -2862,157 -4289,-394l-114280 -44154c-2776,-1073 -4607,-3416 -4976,-6368l-21372 -170982zm318369 483043l-94723 -43301c-927,-424 -1652,-935 -2364,-1665l-101695 -104303c-2566,-2631 -2987,-6553 -1039,-9670l35809 -57295c1354,-2166 3450,-3450 5995,-3671l184531 -16047c650,-56 1210,-39 1855,59l65405 9855c3464,522 6078,3128 6610,6591 3823,24889 5754,50062 5754,75243 0,59941 -10807,119314 -32178,175323 -846,2215 -2446,3788 -4674,4596 -2229,807 -4466,624 -6533,-535l-62753 -35180zm50643 82966c-23592,45242 -54180,86656 -90437,122554 -2377,2354 -5791,2956 -8830,1558l-108269 -49804c-2075,-954 -3501,-2560 -4203,-4734 -701,-2174 -484,-4310 641,-6298l74450 -131528c2060,-3640 6593,-5033 10343,-3179l122814 60732c1970,975 3313,2526 3995,4616 682,2089 513,4134 -504,6083zm-136209 162612c-32386,24998 -67830,45935 -105386,62164 -3060,1323 -6446,651 -8769,-1739l-20019 -20590c-2961,-3046 -2971,-7897 -23,-10955l64947 -67352c2359,-2447 5839,-3109 8932,-1700l58771 26774c2584,1177 4232,3442 4558,6262 326,2821 -763,5402 -3011,7136zm-155693 80709c-40140,12325 -81746,19395 -123694,21160 -2737,116 -5142,-1058 -6735,-3285 -1594,-2227 -1928,-4883 -935,-7436l26703 -68665c1570,-4038 6140,-6053 10181,-4489l76245 29515c1041,402 1861,929 2659,1710l18767 18330c2044,1997 2823,4711 2150,7488 -673,2777 -2609,4833 -5341,5672zm-151214 316l-1104 13793c-335,4191 -3895,7375 -8096,7243 -33433,-1052 -66728,-5467 -99261,-13251 -2104,-503 -3735,-1684 -4870,-3525l-77717 -126028c-735,-1192 -1100,-2377 -1164,-3776l-2232 -49093c-108,-2389 748,-4488 2498,-6118 1748,-1630 3903,-2337 6277,-2061l106619 12397c1505,175 2754,689 3948,1624l95689 74999c2547,1996 3590,5146 2739,8269l-23326 85527zm-216820 -107038l42703 79080c1616,2993 1188,6513 -1097,9032 -2286,2519 -5748,3286 -8884,1968 -85659,-36018 -159581,-95868 -212863,-171983 -2312,-3302 -1778,-7764 1248,-10427l38974 -34297c1770,-1558 3905,-2205 6243,-1894l75898 10121c1939,258 3524,1097 4828,2554l43075 48143c1115,1246 1738,2615 1946,4274l7929 63429zm-205578 -122317c-29774,-52766 -49508,-110619 -58167,-170585 -338,-2342 292,-4491 1841,-6280 1549,-1789 3586,-2719 5952,-2719l11634 0c1884,0 3503,575 4966,1763l82502 67032c2042,1659 3062,3993 2892,6618l-4991 77362c-155,2404 -1254,4412 -3196,5838l-31913 23447c-1881,1382 -4035,1843 -6317,1353 -2282,-490 -4056,-1796 -5203,-3829zm-63232 -238127c-7,-1108 -11,-2217 -11,-3325 0,-19773 1188,-39544 3547,-59176 339,-2818 1998,-5076 4587,-6241 2589,-1165 5379,-909 7713,707l29244 20245c1857,1286 2976,3085 3307,5318 332,2234 -216,4280 -1619,6049l-32725 41262c-2113,2665 -5518,3660 -8734,2551 -3216,-1108 -5285,-3989 -5309,-7390zm11105 -107779c1275,-5874 2666,-11722 4158,-17544 1008,-3932 4793,-6438 8807,-5830l67882 10285c3878,587 6694,3863 6694,7785l0 39738c0,2255 -839,4195 -2482,5739 -1643,1544 -3632,2261 -5882,2120l-33092 -2067c-1669,-105 -3075,-642 -4388,-1679l-38881 -30697c-2419,-1909 -3470,-4838 -2816,-7850zm15734 -56187c1445,-4198 2946,-8377 4506,-12533 1286,-3430 4635,-5477 8274,-5057l58215 6717c568,65 1046,171 1588,352l10308 3436c3272,1091 5384,4022 5384,7470l0 11780c0,4108 -3127,7506 -7220,7847l-24454 2038c-877,73 -1636,15 -2491,-190l-48503 -11640c-2237,-537 -3958,-1852 -5065,-3869 -1107,-2017 -1291,-4175 -542,-6351zm21473 -52257c4631,-9625 9580,-19096 14829,-28398 1290,-2285 3411,-3680 6021,-3960 2610,-278 4978,637 6722,2599l24836 27941c2107,2371 2597,5564 1298,8457 -1299,2893 -4011,4648 -7183,4648l-39427 0c-2787,0 -5183,-1323 -6666,-3683 -1484,-2360 -1638,-5092 -430,-7604zm38611 -66453c22311,-32292 48466,-61879 77757,-88005 1793,-1599 3976,-2258 6355,-1918l35138 5020c3118,445 5541,2537 6436,5558l20249 68339c190,642 285,1210 316,1879l2346 51612c196,4313 -3141,7994 -7452,8221l-92879 4888c-2372,124 -4463,-704 -6104,-2421l-41374 -43254c-2611,-2729 -2935,-6812 -788,-9919zm434578 611527l77393 -63323c2830,-2316 6745,-2407 9682,-227l84469 62749c1798,1336 2852,3152 3121,5376 269,2225 -322,4239 -1751,5965l-56148 67846c-2546,3076 -6925,3766 -10293,1623l-105714 -67272c-2201,-1400 -3478,-3572 -3633,-6175 -155,-2603 855,-4911 2874,-6562zm-45675 -20830l-48238 -33765c-1573,-1102 -2582,-2539 -3085,-4393l-31323 -115655c-759,-2805 -13,-5592 2048,-7641 2060,-2049 4851,-2781 7652,-2006l113342 31350c1593,441 2844,1241 3912,2503l52995 62630c1520,1796 2127,3936 1775,6262 -352,2327 -1564,4192 -3546,5459l-86777 55441c-2744,1752 -6088,1682 -8755,-185zm79375 -148450l128487 -84011c3017,-1972 6846,-1690 9540,706l64870 57662c2796,2484 3467,6469 1639,9732l-69261 123679c-1163,2079 -2988,3406 -5324,3874 -2335,468 -4531,-55 -6405,-1525l-124096 -97331c-2061,-1617 -3120,-3917 -3007,-6534 112,-2617 1365,-4819 3557,-6252zm-34938 -17101l-119526 -36377c-1961,-597 -3448,-1767 -4490,-3533l-58323 -98896c-1912,-3241 -1308,-7272 1469,-9811l89090 -81454c1509,-1380 3268,-2063 5313,-2063l76927 0c1603,0 2979,411 4320,1291l84842 55678c707,464 1250,953 1784,1609l54402 66766c1410,1730 1987,3740 1708,5955 -278,2216 -1334,4020 -3129,5348l-127411 94284c-2069,1532 -4513,1953 -6976,1203zm-370987 55969l-13303 -48777c-976,-3578 598,-7247 3863,-9005l61417 -33071c2765,-1489 5945,-1250 8458,634l44843 33632c3370,2527 4155,7254 1782,10735l-34469 50556c-1575,2309 -4028,3543 -6821,3432l-58488 -2340c-3489,-140 -6363,-2428 -7282,-5796zm128128 -84525l-50313 -47796c-1469,-1397 -2272,-3084 -2427,-5105l-2172 -28231c-218,-2828 966,-5363 3274,-7012l31952 -22823c1885,-1346 4024,-1781 6285,-1279l42562 9459c2252,500 4000,1792 5139,3800l49469 87157c1401,2468 1407,5267 18,7742 -1390,2475 -3783,3926 -6620,4015l-71497 2234c-2183,68 -4086,-657 -5670,-2161zm360789 -154082l-58035 -47288c-2134,-1739 -3155,-4232 -2852,-6969 302,-2736 1842,-4946 4305,-6178l18650 -9325c2213,-1107 4575,-1143 6821,-107l59443 27435c2182,1007 3657,2747 4294,5064 636,2317 257,4566 -1105,6546l-20059 29178c-1292,1880 -3114,3010 -5371,3334 -2258,323 -4323,-250 -6091,-1690zm-121102 -158044l-232300 -36135c-3118,-485 -5519,-2615 -6371,-5653l-40427 -144020c-1168,-4163 1261,-8511 5418,-9699l105300 -30086c1653,-472 3203,-421 4821,159l139906 50155c2101,753 3632,2175 4538,4215l20018 45041c396,890 598,1712 662,2685l7503 115045c161,2466 -720,4655 -2543,6323 -1824,1668 -4082,2350 -6525,1970zm-485285 224545l37219 -52544c1424,-2010 3476,-3154 5934,-3308l33785 -2112c3754,-234 7072,2128 8078,5752l10610 38196c869,3128 -169,6293 -2722,8299l-31565 24802c-1804,1418 -3896,1953 -6160,1576l-50049 -8343c-2753,-459 -4901,-2162 -5974,-4739 -1073,-2577 -770,-5301 844,-7579zm90301 80815l-16331 -14517c-2642,-2350 -3399,-6011 -1904,-9215l14944 -32021c1151,-2465 3277,-4054 5968,-4457l46783 -7019c2550,-382 4911,396 6735,2220l17546 17546c2589,2588 3068,6480 1184,9619l-3891 6485c-805,1341 -1831,2291 -3230,2991l-59051 29526c-2939,1469 -6297,1025 -8753,-1158zm31384 -142933l56221 -4165c2708,-201 5129,875 6797,3018l12537 16120c2378,3057 2206,7299 -411,10154l-22527 24577c-2004,2185 -4838,3037 -7715,2318l-25497 -6374c-1938,-484 -3447,-1532 -4579,-3178l-20733 -30157c-1642,-2388 -1864,-5254 -611,-7866 1253,-2613 3628,-4233 6518,-4447zm84589 -69581l75979 -30392c976,-390 1875,-563 2925,-563l47369 0c2168,0 4034,773 5568,2306l22316 22316c3066,3067 3066,8069 0,11135l-68583 68582c-1762,1762 -4013,2544 -6488,2253l-40992 -4822c-1290,-152 -2366,-548 -3447,-1269l-36090 -24061c-2258,-1505 -3507,-3838 -3507,-6551l0 -31623c0,-3287 1899,-6090 4950,-7311zm-48795 37356l-57985 -2147c-2182,-81 -4030,-934 -5507,-2542 -1477,-1607 -2171,-3521 -2067,-5701l1921 -40347c114,-2402 1175,-4424 3086,-5884 1911,-1459 4140,-1950 6488,-1429l14360 3192c843,187 1539,461 2284,899l41704 24532c2473,1455 3882,3918 3882,6787l0 14772c0,2220 -812,4130 -2410,5670 -1599,1540 -3537,2281 -5756,2198zm-42155 -117297l128827 -16396c2497,-318 4781,463 6562,2243l27833 27834c2123,2122 2843,5042 1951,7908 -893,2867 -3144,4862 -6096,5404l-116172 21339c-2342,430 -4527,-127 -6377,-1625l-40488 -32776c-2505,-2027 -3501,-5173 -2620,-8273 881,-3100 3383,-5251 6580,-5658zm348195 31771l43407 -1808c2884,-120 5420,1204 6970,3639l9511 14945c1548,2431 1676,5283 352,7843 -1323,2561 -3723,4105 -6601,4249l-37887 1895c-2304,115 -4331,-666 -5961,-2296l-15031 -15032c-2260,-2259 -2929,-5452 -1768,-8429 1161,-2976 3815,-4873 7008,-5006zm-147791 -10817l-872 -6107c-573,-4011 1954,-7770 5885,-8752l11349 -2837c2427,-607 4769,-112 6743,1424l14940 11619c2817,2190 3803,5846 2469,9157 -1333,3311 -4578,5262 -8127,4889l-25416 -2676c-3636,-382 -6454,-3098 -6971,-6717zm65362 7018l21483 6714c1271,397 2277,1005 3219,1947l14311 14311c2351,2351 2978,5733 1625,8771 -1353,3037 -4286,4834 -7607,4660l-26880 -1415c-3010,-159 -5507,-1861 -6754,-4605l-8913 -19610c-1315,-2891 -836,-6091 1266,-8471 2103,-2380 5219,-3249 8250,-2302zm-171670 371385l47179 -56615c1549,-1858 3630,-2833 6049,-2833l58886 0c3613,0 6669,2344 7605,5834l25730 95901c684,2552 135,5052 -1556,7082 -1692,2029 -4052,3021 -6685,2807l-88181 -7149c-1525,-124 -2803,-602 -4035,-1509l-43614 -32138c-1812,-1335 -2875,-3158 -3146,-5392 -270,-2235 327,-4259 1768,-5988z"/>
 </g>
</svg>
