<?xml version="1.0" encoding="UTF-8"?>
<!DOCTYPE svg PUBLIC "-//W3C//DTD SVG 1.1//EN" "http://www.w3.org/Graphics/SVG/1.1/DTD/svg11.dtd">
<!-- Creator: CorelDRAW X7 -->
<svg xmlns="http://www.w3.org/2000/svg" xml:space="preserve" width="10in" height="10in" version="1.1" style="shape-rendering:geometricPrecision; text-rendering:geometricPrecision; image-rendering:optimizeQuality; fill-rule:evenodd; clip-rule:evenodd"
viewBox="0 0 1000000 1000000"
 xmlns:xlink="http://www.w3.org/1999/xlink">
 <defs>
  <style type="text/css">
   <![CDATA[
    .fil0 {fill:#666666}
   ]]>
  </style>
 </defs>
 <g id="Layer_x0020_1">
  <metadata id="CorelCorpID_0Corel-Layer"/>
  <path class="fil0" d="M404522 53402l525946 598993c17282,-48804 26075,-100225 26075,-152395 0,-252181 -204415,-456596 -456597,-456596 -32144,0 -64112,3340 -95424,9998zm474104 701742l-582748 -663685c-74452,37270 -137525,94428 -182037,164767l577948 658218c75546,-35042 140265,-90318 186837,-159300zm-298109 194367l-515900 -587554c-8533,26957 -14530,54679 -17923,82823l449382 511796c1291,13 2580,20 3870,20 27060,0 54017,-2361 80571,-7085zm-257755 -28529l-262982 -299508c37116,134528 134449,245421 262982,299508zm177184 -913162c271824,0 492180,220357 492180,492180 0,78454 -18387,152601 -51039,218420l-600706 -684137c50041,-17142 103713,-26463 159565,-26463zm423005 743876c-55141,92476 -139738,165339 -240844,205653l-612069 -697079c52625,-94157 135265,-169254 234996,-212313l617917 703739zm-276961 218450c-46141,14323 -95192,22034 -146044,22034 -6822,0 -13603,-178 -20358,-452l-469892 -535154c5029,-57450 19900,-112078 42967,-162161l593327 675733zm-217967 16786c-235019,-34412 -416055,-234910 -420149,-478503l420149 478503z"/>
 </g>
</svg>
