<?xml version="1.0" encoding="UTF-8"?>
<!DOCTYPE svg PUBLIC "-//W3C//DTD SVG 1.1//EN" "http://www.w3.org/Graphics/SVG/1.1/DTD/svg11.dtd">
<!-- Creator: CorelDRAW X7 -->
<svg xmlns="http://www.w3.org/2000/svg" xml:space="preserve" width="10in" height="10in" version="1.1" style="shape-rendering:geometricPrecision; text-rendering:geometricPrecision; image-rendering:optimizeQuality; fill-rule:evenodd; clip-rule:evenodd"
viewBox="0 0 1000000 1000000"
 xmlns:xlink="http://www.w3.org/1999/xlink">
 <defs>
  <style type="text/css">
   <![CDATA[
    .str0 {stroke:black;stroke-width:694.488}
    .str1 {stroke:black;stroke-width:694.488}
    .fil0 {fill:none}
    .fil1 {fill:#666666}
    .fil2 {fill:white}
   ]]>
  </style>
   <clipPath id="id0">
    <rect x="-367187" y="182067" width="57291" height="93750"/>
   </clipPath>
 </defs>
 <g id="Layer_x0020_1" visibility="hidden">
  <metadata id="CorelCorpID_0Corel-Layer"/>
  <path class="fil0 str0" d="M500000 7874c271794,0 492126,220332 492126,492126 0,271794 -220332,492126 -492126,492126 -271794,0 -492126,-220332 -492126,-492126 0,-271794 220332,-492126 492126,-492126z"/>
 </g>
 <g id="Layer_x0020_2" visibility="hidden">
  <metadata id="CorelCorpID_1Corel-Layer"/>
  <polyline id="Short" class="fil0 str0" points="500000,130906 500000,500000 500000,869094 "/>
 </g>
 <g id="Layer_x0020_4" visibility="hidden">
  <metadata id="CorelCorpID_2Corel-Layer"/>
  <path id="_60" class="fil0 str0" d="M500000 204724c163076,0 295276,132200 295276,295276 0,163076 -132200,295276 -295276,295276 -163076,0 -295276,-132200 -295276,-295276 0,-163076 132200,-295276 295276,-295276z"/>
  <polygon id="fat" class="fil0 str1" points="515748,-7874 515748,1007874 484252,1007874 484252,-7874 "/>
  <polygon id="thin" class="fil0 str1" points="501969,5906 501969,994094 498031,994094 498031,5906 "/>
  <path id="_40" class="fil0 str0" d="M500000 303150c108717,0 196850,88133 196850,196850 0,108717 -88133,196850 -196850,196850 -108717,0 -196850,-88133 -196850,-196850 0,-108717 88133,-196850 196850,-196850z"/>
 </g>
 <g id="Layer_x0020_3" visibility="hidden">
  <metadata id="CorelCorpID_3Corel-Layer"/>
  <polyline id="Long" class="fil0 str0" points="500000,7874 500000,500000 500000,992126 "/>
  <g style="clip-path:url(#id0)">
   <image x="-367187" y="182067" width="57291" height="93750" xlink:href="Piano_Images\Piano_ImgID1.gif"/>
  </g>
  <rect class="fil0 str0" x="-342187" y="217188" width="3125" height="44792"/>
 </g>
 <g id="Layer_x0020_6" visibility="hidden">
  <metadata id="CorelCorpID_4Corel-Layer"/>
  <path id="_60_0" class="fil0 str0" d="M500000 204724c163076,0 295276,132200 295276,295276 0,163076 -132200,295276 -295276,295276 -163076,0 -295276,-132200 -295276,-295276 0,-163076 132200,-295276 295276,-295276z"/>
  <g id="_2472439435680">
   <polygon id="fat_1" class="fil0 str1" points="515748,-7874 515748,500000 484252,500000 484252,-7874 "/>
   <polygon id="thin_2" class="fil0 str1" points="501969,5906 501969,500000 498031,500000 498031,5906 "/>
  </g>
  <path id="_40_3" class="fil0 str0" d="M500000 303150c108717,0 196850,88133 196850,196850 0,108717 -88133,196850 -196850,196850 -108717,0 -196850,-88133 -196850,-196850 0,-108717 88133,-196850 196850,-196850z"/>
  <g id="_2472439432416">
   <polygon id="fat_4" class="fil0 str1" points="427317,-2893 515509,497265 484491,502735 396300,2576 "/>
   <polygon id="thin_5" class="fil0 str1" points="416140,13070 501939,499658 498061,500342 412263,13754 "/>
  </g>
  <g id="_2472439430432">
   <polygon id="fat_6" class="fil0 str1" points="341095,17369 514798,494614 485202,505386 311498,28141 "/>
   <polygon id="thin_7" class="fil0 str1" points="332859,35030 501850,499327 498150,500673 329160,36376 "/>
  </g>
 </g>
 <g id="Layer_x0020_5" visibility="hidden">
  <metadata id="CorelCorpID_5Corel-Layer"/>
  <path id="_60_8" class="fil0 str0" d="M500000 204724c163076,0 295276,132200 295276,295276 0,163076 -132200,295276 -295276,295276 -163076,0 -295276,-132200 -295276,-295276 0,-163076 132200,-295276 295276,-295276z"/>
  <path id="_40_9" class="fil0 str0" d="M500000 303150c108717,0 196850,88133 196850,196850 0,108717 -88133,196850 -196850,196850 -108717,0 -196850,-88133 -196850,-196850 0,-108717 88133,-196850 196850,-196850z"/>
  <polygon id="thin_10" class="fil1" points="501969,5906 501969,500000 498031,500000 498031,5906 "/>
  <g id="_2472439427936">
   <path id="fat_11" class="fil1" d="M436129 -3777l33322 210384c-10542,1084 -20927,2708 -31117,4875l-33313 -210332 31108 -4927z"/>
   <polygon id="thin_12" class="fil1" points="424675,11989 501969,500000 498080,500616 420787,12604 "/>
  </g>
  <g id="_2472439428032">
   <path id="fat_13" class="fil1" d="M366658 10289l62277 203700c-10288,2540 -20346,5593 -30135,9157l-62262 -203648 30120 -9209z"/>
   <polygon id="thin_14" class="fil1" points="357509,27495 501969,500000 498204,501151 353744,28646 "/>
  </g>
  <polygon id="thin_15" class="fil1" points="285172,55048 501769,499137 498231,500863 281634,56774 "/>
  <g id="_2472439427456">
   <path id="fat_16" class="fil1" d="M221952 76070l122175 174486c-8999,5595 -17622,11607 -25831,18021l-122144 -174441 25800 -18066z"/>
   <polygon id="thin_17" class="fil1" points="218568,95261 501969,500000 498743,502258 215343,97520 "/>
  </g>
  <g id="_2472439427552">
   <path id="fat_18" class="fil1" d="M165677 119167l145270 155783c-8133,6794 -15835,13947 -23071,21441l-145233 -155744 23034 -21480z"/>
   <polygon id="thin_19" class="fil1" points="164997,138642 501969,500000 499089,502685 162118,141327 "/>
  </g>
  <g id="_2472439424288">
   <path id="fat_20" class="fil1" d="M115948 169676l165537 134050c-7108,7859 -13740,16015 -19862,24443l-165496 -134016 19821 -24477z"/>
   <polygon id="thin_21" class="fil1" points="117985,189056 501969,500000 499491,503059 115507,192116 "/>
  </g>
  <polygon id="thin_22" class="fil1" points="73086,251248 500984,498295 499016,501705 71117,254657 "/>
  <g id="Full_x0020_Set">
   <g>
    <path id="fat_23" class="fil1" d="M31781 303425l198859 76335c-4332,9671 -8118,19477 -11337,29385l-198809 -76316 11287 -29404z"/>
    <polygon id="thin_24" class="fil1" points="39707,321228 500984,498295 499573,501971 38296,324903 "/>
   </g>
   <g>
    <path id="fat_25" class="fil1" d="M9227 370622l207547 47916c-2944,10180 -5329,20418 -7137,30677l-207495 -47904 7085 -30689z"/>
    <polygon id="thin_26" class="fil1" points="19554,387148 500984,498295 500098,502131 18668,390984 "/>
   </g>
   <polygon id="thin_27" class="fil1" points="7246,463570 500137,498036 499863,501964 6972,467497 "/>
   <g>
    <path id="fat_28" class="fil1" d="M-6158 528832l212196 -18564c346,10591 1242,21064 2692,31380l-212143 18560 -2745 -31376z"/>
    <polygon id="thin_29" class="fil1" points="8770,541358 500984,498295 501328,502217 9113,545280 "/>
   </g>
   <g>
    <path id="fat_30" class="fil1" d="M3027 599116l207548 -47916c1816,10440 4161,20687 7033,30700l-207496 47904 -7085 -30688z"/>
    <polygon id="thin_31" class="fil1" points="19554,609442 500984,498295 501870,502131 20439,613278 "/>
   </g>
   <g>
    <path id="fat_32" class="fil1" d="M21905 667437l198859 -76335c3252,10086 6999,19907 11237,29423l-198809 76316 -11287 -29404z"/>
    <polygon id="thin_33" class="fil1" points="39707,675363 500984,498295 502395,501971 41118,679038 "/>
   </g>
   <polygon id="thin_34" class="fil1" points="71117,745343 499016,498295 500984,501705 73086,748752 "/>
  </g>
  <g id="Full_x0020_Set_35">
   <g>
    <path id="fat_36" class="fil1" d="M95652 807202l165537 -134050c6210,8588 12809,16770 19780,24511l-165496 134016 -19821 -24477z"/>
    <polygon id="thin_37" class="fil1" points="115032,809239 499016,498295 501493,501355 117510,812298 "/>
   </g>
   <g>
    <path id="fat_38" class="fil1" d="M142569 860333l145270 -155783c7344,7639 15018,14824 22998,21519l-145233 155744 -23035 -21480z"/>
    <polygon id="thin_39" class="fil1" points="162044,859653 499016,498295 501895,500980 164924,862338 "/>
   </g>
   <polygon id="thin_40" class="fil1" points="222074,908522 498368,498899 501632,501101 225338,910724 "/>
   <g>
    <path id="fat_41" class="fil1" d="M271891 952762l90020 -193050c9345,4996 18863,9458 28522,13359l-89998 193001 -28544 -13310z"/>
    <polygon id="thin_42" class="fil1" points="290202,946097 499016,498295 502584,499959 293770,947761 "/>
   </g>
   <g>
    <path id="fat_43" class="fil1" d="M337350 979949l62278 -203700c9949,3647 19996,6740 30104,9260l-62262 203648 -30120 -9208z"/>
    <polygon id="thin_44" class="fil1" points="354557,970800 499016,498295 502781,499446 358322,971951 "/>
   </g>
   <g>
    <path id="fat_45" class="fil1" d="M405957 997761l33322 -210385c10360,2227 20739,3892 31099,4980l-33313 210332 -31108 -4927z"/>
    <polygon id="thin_46" class="fil1" points="421722,986307 499016,498295 502904,498911 425611,986922 "/>
   </g>
   <polygon id="thin_47" class="fil1" points="498031,994094 498031,500000 501969,500000 501969,994094 "/>
  </g>
  <g id="Full_x0020_Set_48">
   <g>
    <path id="fat_49" class="fil1" d="M563871 1003777l-33322 -210384c10542,-1084 20927,-2708 31117,-4875l33313 210332 -31108 4927z"/>
    <polygon id="thin_50" class="fil1" points="575325,988011 498031,500000 501920,499384 579213,987396 "/>
   </g>
   <g>
    <path id="fat_51" class="fil1" d="M633342 989711l-62277 -203700c10288,-2540 20346,-5593 30135,-9157l62262 203648 -30120 9209z"/>
    <polygon id="thin_52" class="fil1" points="642491,972505 498031,500000 501796,498849 646256,971354 "/>
   </g>
   <polygon id="thin_53" class="fil1" points="714828,944952 498231,500863 501769,499137 718366,943226 "/>
   <g>
    <path id="fat_54" class="fil1" d="M778048 923930l-122175 -174486c8999,-5595 17622,-11607 25831,-18021l122144 174441 -25800 18066z"/>
    <polygon id="thin_55" class="fil1" points="781432,904739 498031,500000 501257,497742 784657,902480 "/>
   </g>
   <g>
    <path id="fat_56" class="fil1" d="M834323 880833l-145270 -155783c8133,-6794 15835,-13947 23071,-21441l145233 155744 -23034 21480z"/>
    <polygon id="thin_57" class="fil1" points="835003,861358 498031,500000 500911,497315 837882,858673 "/>
   </g>
   <g>
    <path id="fat_58" class="fil1" d="M884052 830324l-165537 -134050c7108,-7859 13740,-16015 19862,-24443l165496 134016 -19821 24477z"/>
    <polygon id="thin_59" class="fil1" points="882015,810944 498031,500000 500509,496941 884493,807884 "/>
   </g>
   <polygon id="thin_60" class="fil1" points="926914,748752 499016,501705 500984,498295 928883,745343 "/>
  </g>
  <g id="Full_x0020_Set_61">
   <g>
    <path id="fat_62" class="fil1" d="M968219 696575l-198859 -76335c4332,-9671 8118,-19477 11337,-29385l198809 76316 -11287 29404z"/>
    <polygon id="thin_63" class="fil1" points="960293,678772 499016,501705 500427,498029 961704,675097 "/>
   </g>
   <g>
    <path id="fat_64" class="fil1" d="M990773 629378l-207547 -47916c2944,-10180 5329,-20418 7137,-30677l207495 47904 -7085 30689z"/>
    <polygon id="thin_65" class="fil1" points="980446,612852 499016,501705 499902,497869 981332,609016 "/>
   </g>
   <polygon id="thin_66" class="fil1" points="992754,536430 499863,501964 500137,498036 993028,532503 "/>
   <g>
    <path id="fat_67" class="fil1" d="M1006158 471168l-212196 18564c-346,-10591 -1242,-21064 -2692,-31380l212143 -18560 2745 31376z"/>
    <polygon id="thin_68" class="fil1" points="991230,458642 499016,501705 498672,497783 990887,454720 "/>
   </g>
   <g>
    <path id="fat_69" class="fil1" d="M996973 400884l-207548 47916c-1816,-10440 -4161,-20687 -7033,-30700l207496 -47904 7085 30688z"/>
    <polygon id="thin_70" class="fil1" points="980446,390558 499016,501705 498130,497869 979561,386722 "/>
   </g>
   <g>
    <path id="fat_71" class="fil1" d="M978095 332563l-198859 76335c-3252,-10086 -6999,-19907 -11237,-29423l198809 -76316 11287 29404z"/>
    <polygon id="thin_72" class="fil1" points="960293,324637 499016,501705 497605,498029 958882,320962 "/>
   </g>
   <polygon id="thin_73" class="fil1" points="928883,254657 500984,501705 499016,498295 926914,251248 "/>
  </g>
  <g id="Full_x0020_Set_74">
   <g>
    <path id="fat_75" class="fil1" d="M904348 192798l-165537 134050c-6210,-8588 -12809,-16770 -19780,-24511l165496 -134016 19821 24477z"/>
    <polygon id="thin_76" class="fil1" points="884968,190761 500984,501705 498507,498645 882490,187702 "/>
   </g>
   <g>
    <path id="fat_77" class="fil1" d="M857431 139667l-145270 155783c-7344,-7639 -15018,-14824 -22998,-21519l145233 -155744 23035 21480z"/>
    <polygon id="thin_78" class="fil1" points="837956,140347 500984,501705 498105,499020 835076,137662 "/>
   </g>
   <polygon id="thin_79" class="fil1" points="777926,91478 501632,501101 498368,498899 774662,89276 "/>
   <g>
    <path id="fat_80" class="fil1" d="M728109 47238l-90020 193050c-9345,-4996 -18863,-9458 -28522,-13359l89998 -193001 28544 13310z"/>
    <polygon id="thin_81" class="fil1" points="709798,53903 500984,501705 497416,500041 706230,52239 "/>
   </g>
   <g>
    <path id="fat_82" class="fil1" d="M662650 20051l-62278 203700c-9949,-3647 -19996,-6740 -30104,-9260l62262 -203648 30120 9208z"/>
    <polygon id="thin_83" class="fil1" points="645443,29200 500984,501705 497219,500554 641678,28049 "/>
   </g>
   <g>
    <path id="fat_84" class="fil1" d="M594043 2239l-33322 210385c-10360,-2227 -20739,-3892 -31099,-4980l33313 -210332 31108 4927z"/>
    <polygon id="thin_85" class="fil1" points="578278,13693 500984,501705 497096,501089 574389,13078 "/>
   </g>
   <polygon id="thin_86" class="fil1" points="501969,5906 501969,500000 498031,500000 498031,5906 "/>
  </g>
 </g>
 <g id="Layer_x0020_7">
  <metadata id="CorelCorpID_6Corel-Layer"/>
  <path class="fil2 str1" d="M500000 32480c258204,0 467520,209316 467520,467520 0,258204 -209316,467520 -467520,467520 -258204,0 -467520,-209316 -467520,-467520 0,-258204 209316,-467520 467520,-467520z"/>
  <path id="fat_87" class="fil1" d="M330501 600133l-234439 135354c-662,-1133 -1336,-2259 -1988,-3398l234454 -135362c646,1143 1305,2278 1973,3406zm169499 -567653c658,0 1311,22 1969,25l0 270669c-657,-6 -1311,-24 -1969,-24 -658,0 -1312,18 -1969,24l0 -270669c658,-3 1311,-25 1969,-25zm259817 78807c1090,730 2176,1465 3261,2205l-151372 224417c-1079,-745 -2167,-1480 -3262,-2204l151373 -224418zm144121 153226c662,1133 1336,2259 1988,3398l-234454 135362c-646,-1143 -1305,-2278 -1973,-3406l234439 -135354zm62556 266134c-85,1309 -153,2623 -249,3929l-270017 -18881c102,-1305 185,-2616 263,-3928l270003 18880zm-60568 201442c-652,1139 -1326,2265 -1988,3398l-234439 -135354c668,-1128 1327,-2263 1973,-3406l234454 135362zm-199180 187312c-1177,581 -2344,1181 -3526,1753l-118684 -243338c1186,-565 2363,-1146 3536,-1733l118674 243318zm-204777 48094c-658,3 -1311,25 -1969,25 -658,0 -1311,-22 -1969,-25l0 -270669c657,6 1311,24 1969,24 658,0 1312,-18 1969,-24l0 270669zm-261786 -78782c-1090,-730 -2177,-1465 -3261,-2205l151372 -224417c1079,746 2167,1480 3262,2205l-151373 224417zm-206677 -419360c85,-1309 153,-2623 249,-3929l270017 18881c-102,1305 -185,2616 -263,3928l-270003 -18880zm60568 -201442c652,-1139 1326,-2265 1988,-3398l234439 135354c-668,1128 -1328,2263 -1974,3406l-234453 -135362zm199180 -187312c1177,-581 2344,-1181 3526,-1753l118684 243338c-1186,565 -2363,1146 -3536,1733l-118674 -243318z"/>
  <path id="fat_88" class="fil1" d="M35301 662294l185463 -71192c1416,4392 2926,8733 4529,13021l90454 -34722c464,1229 934,2454 1422,3671l-90472 34729c1673,4298 3441,8540 5304,12724l-185395 71166c-4077,-9643 -7833,-19453 -11305,-29397zm273442 -115575l-94617 21843c1059,4489 2219,8936 3482,13338l-193284 44623c-2683,-10104 -5046,-20338 -7093,-30687l193344 -44636c791,4546 1682,9055 2673,13524l94600 -21840c286,1283 584,2561 895,3835zm-4636 -27247l-96968 8484c423,4592 953,9157 1591,13692l-197332 17265c-1241,-10363 -2154,-20827 -2744,-31377l197384 -17268c151,4612 406,9201 765,13765l96956 -8483c104,1311 220,2619 348,3922zm3610 -61755l-95362 -22017c-1017,4499 -1923,9005 -2718,13515l-192521 -44447c2030,-10353 4379,-20589 7047,-30698l192611 44468c-1281,4433 -2457,8877 -3526,13328l95349 22013c-306,1275 -599,2554 -880,3838zm7763 -26413l-91605 -35164c-1632,4314 -3157,8649 -4572,13005l-184253 -70728c3457,-9950 7202,-19764 11268,-29412l184322 70755c-1886,4211 -3669,8448 -5346,12707l91589 35159c-482,1218 -945,2447 -1403,3678zm29851 -53080l-75341 -61011c-2886,3598 -5675,7251 -8367,10956l-154233 -124896c6341,-8378 12935,-16555 19788,-24503l154307 124956c-3095,3422 -6100,6900 -9011,10433l75327 60998c-833,1015 -1657,2036 -2470,3067zm18604 -20474l-66248 -71043c-3359,3162 -6630,6390 -9811,9684l-135219 -145004c7437,-7411 15122,-14572 23019,-21498l135271 145061c-3541,2959 -7001,5985 -10376,9078l66240 71033c-966,889 -1928,1782 -2876,2689zm21257 -17660l-55833 -79738c-3765,2663 -7454,5405 -11063,8225l-113618 -162264c8386,-6302 16995,-12321 25785,-18087l113664 162330c-3918,2436 -7766,4951 -11538,7544l55824 79726c-1081,746 -2156,1498 -3221,2264zm55280 -27769l-28610 -93579c-4404,1369 -8759,2837 -13062,4404l-57787 -189010c9902,-3379 19955,-6426 30129,-9180l57793 189033c-4480,1105 -8916,2309 -13305,3609l28609 93576c-1261,372 -2517,751 -3767,1147zm26765 -6442l-15354 -96940c-4552,743 -9069,1591 -13549,2543l-30866 -194884c10262,-1956 20633,-3604 31110,-4914l30873 194923c-4590,473 -9150,1047 -13678,1724l15352 96932c-1301,192 -2596,399 -3888,616zm60891 -720l15165 -95747c-4559,-700 -9117,-1290 -13671,-1768l31050 -196046c10481,1289 20853,2922 31119,4859l-31070 196167c-4511,-970 -9026,-1833 -13541,-2589l-15161 95721c-1293,-212 -2589,-411 -3891,-597zm27044 5839l28388 -92853c-4417,-1328 -8848,-2547 -13292,-3654l57997 -189696c10178,2740 20235,5771 30141,9136l-58034 189820c-4332,-1588 -8683,-3071 -13049,-4447l-28380 92827c-1251,-392 -2510,-765 -3771,-1133zm25928 9582l41121 -88184c-4189,-1929 -8408,-3752 -12654,-5467l83753 -179610c9679,4138 19197,8582 28545,13312l-83776 179657c-4069,-2176 -8171,-4250 -12304,-6220l-41118 88178c-1184,-565 -2371,-1124 -3567,-1666zm51639 34063l66769 -71602c-3388,-3129 -6837,-6167 -10345,-9110l134701 -144450c7906,6915 15592,14075 23039,21476l-134742 144493c-3198,-3326 -6459,-6567 -9780,-9718l-66761 71593c-951,-905 -1913,-1797 -2881,-2682zm18982 19931l76287 -61775c-2919,-3571 -5912,-7059 -8977,-10462l153304 -124143c6866,7937 13461,16113 19816,24481l-153340 124173c-2704,-3740 -5482,-7402 -8332,-10985l-76283 61773c-817,-1027 -1638,-2051 -2475,-3062zm31110 52354l90472 -34729c-1673,-4298 -3441,-8540 -5304,-12724l185395 -71166c4081,9640 7832,19453 11305,29397l-185463 71192c-1416,-4392 -2926,-8733 -4529,-13021l-90454 34722c-464,-1229 -934,-2454 -1422,-3671zm8426 26353l94617 -21843c-1059,-4489 -2219,-8936 -3482,-13338l193284 -44623c2684,10104 5046,20338 7093,30687l-193344 44636c-791,-4546 -1682,-9055 -2673,-13524l-94600 21840c-286,-1283 -584,-2561 -895,-3835zm4636 27247l96968 -8484c-423,-4592 -953,-9157 -1591,-13692l197332 -17265c1241,10363 2154,20827 2744,31377l-197384 17268c-151,-4612 -406,-9201 -765,-13765l-96956 8483c-104,-1311 -220,-2618 -348,-3922zm-3610 61755l95362 22017c1017,-4499 1923,-9005 2718,-13515l192521 44447c-2030,10353 -4379,20589 -7047,30698l-192611 -44468c1281,-4433 2457,-8877 3526,-13328l-95349 -22013c306,-1274 599,-2554 880,-3838zm-7763 26413l91605 35164c1632,-4314 3157,-8649 4572,-13005l184253 70728c-3457,9950 -7202,19764 -11268,29412l-184322 -70755c1886,-4211 3669,-8448 5346,-12707l-91589 -35159c482,-1219 945,-2447 1403,-3678zm-29851 53080l75341 61011c2886,-3598 5675,-7251 8367,-10956l154233 124896c-6341,8378 -12935,16555 -19788,24503l-154307 -124956c3095,-3422 6100,-6900 9011,-10433l-75327 -60998c833,-1015 1657,-2036 2470,-3067zm-18604 20474l66248 71043c3359,-3162 6630,-6390 9811,-9684l135219 145005c-7437,7410 -15123,14571 -23019,21497l-135271 -145061c3541,-2959 7001,-5985 10376,-9078l-66240 -71033c966,-889 1928,-1782 2876,-2689zm-21257 17660l55833 79738c3765,-2663 7454,-5405 11063,-8225l113618 162264c-8386,6302 -16995,12321 -25785,18087l-113664 -162330c3918,-2436 7766,-4951 11538,-7544l-55824 -79726c1080,-745 2156,-1498 3221,-2264zm-55280 27769l28610 93579c4404,-1369 8759,-2837 13062,-4404l57787 189010c-9902,3379 -19955,6426 -30129,9180l-57793 -189033c4480,-1105 8916,-2309 13305,-3609l-28609 -93576c1261,-372 2517,-751 3767,-1147zm-26765 6442l15354 96940c4552,-743 9069,-1591 13549,-2543l30866 194884c-10262,1956 -20633,3604 -31110,4914l-30873 -194923c4590,-473 9150,-1047 13678,-1724l-15352 -96932c1301,-192 2596,-399 3888,-616zm-60891 720l-15165 95747c4559,700 9117,1290 13671,1768l-31050 196046c-10481,-1289 -20854,-2922 -31119,-4859l31070 -196167c4511,970 9026,1833 13541,2589l15161 -95721c1293,212 2590,411 3891,597zm-27044 -5839l-28388 92853c4417,1328 8848,2547 13292,3654l-57997 189696c-10177,-2740 -20236,-5771 -30141,-9136l58034 -189820c4332,1588 8683,3071 13049,4447l28380 -92827c1251,392 2510,765 3771,1133zm-25928 -9582l-41121 88184c4189,1929 8408,3752 12654,5467l-83753 179610c-9678,-4139 -19197,-8582 -28545,-13312l83776 -179657c4069,2176 8171,4250 12304,6220l41118 -88178c1183,565 2371,1124 3567,1666zm-51639 -34063l-66769 71602c3388,3129 6837,6167 10345,9110l-134701 144450c-7905,-6916 -15593,-14075 -23039,-21476l134742 -144493c3198,3326 6459,6567 9780,9718l66761 -71593c951,905 1913,1797 2881,2682zm-18982 -19931l-76287 61775c2919,3571 5912,7059 8977,10462l-153304 124143c-6864,-7937 -13463,-16112 -19816,-24481l153340 -124173c2704,3740 5482,7402 8332,10985l76283 -61774c817,1028 1639,2052 2475,3063z"/>
 </g>
</svg>
